<svg id="Livello_1" data-name="Livello 1" xmlns="http://www.w3.org/2000/svg" viewBox="0 0 83.23 83.24"><defs><style>.cls-1{fill:#fee648;}.cls-2{fill:#e8bb39;}.cls-3{fill:#ff784d;}</style></defs><path id="Tracciato_4" data-name="Tracciato 4" class="cls-1" d="M40.36.35,4.88,22.27,9.54,34.82,32.68,46.65l8.94-2.43,8.94,2.43L74.29,34.46l4.07-12.19L42.87.35A2.41,2.41,0,0,0,40.36.35Z"/><path id="Tracciato_5" data-name="Tracciato 5" class="cls-2" d="M41.62,44.22l-4.88,6.1V78l4.88,5.29L76,62.73l2.39-4.25V22.27Z"/><path id="Tracciato_6" data-name="Tracciato 6" class="cls-1" d="M4.88,22.27v36L7.1,62.62,41.62,83.23v-39Z"/><path id="Tracciato_7" data-name="Tracciato 7" class="cls-3" d="M2.44,14.79A2.43,2.43,0,0,1,0,12.36H0V2.44A2.44,2.44,0,0,1,2.44,0h9.91a2.44,2.44,0,0,1,0,4.88H4.88v7.47a2.44,2.44,0,0,1-2.44,2.44Z"/><path id="Tracciato_8" data-name="Tracciato 8" class="cls-3" d="M80.79,14.79a2.43,2.43,0,0,1-2.43-2.43h0V4.88H71A2.44,2.44,0,0,1,71,0h9.75a2.44,2.44,0,0,1,2.44,2.44h0v9.91a2.43,2.43,0,0,1-2.43,2.44Z"/><path id="Tracciato_9" data-name="Tracciato 9" class="cls-3" d="M12.35,83.23H2.44A2.43,2.43,0,0,1,0,80.8H0V71a2.44,2.44,0,1,1,4.88,0v7.31h7.47a2.44,2.44,0,0,1,0,4.88Z"/><path id="Tracciato_10" data-name="Tracciato 10" class="cls-3" d="M80.79,83.23H71a2.44,2.44,0,0,1,0-4.88h7.31V71a2.44,2.44,0,0,1,4.88,0v9.75a2.43,2.43,0,0,1-2.43,2.44Z"/></svg>