<svg xmlns="http://www.w3.org/2000/svg" viewBox="0 0 47.88 55.77"><defs><style>.cls-1{fill:#fee648;}</style></defs><g id="Livello_2" data-name="Livello 2"><g id="Livello_2-2" data-name="Livello 2"><polygon class="cls-1" points="47.02 14.19 23.94 0.86 0.86 14.19 23.94 27.51 47.02 14.19"/><polygon class="cls-1" points="23.94 54.91 0.86 41.59 0.86 14.19 23.94 27.51 23.94 54.91"/><polygon class="cls-1" points="23.94 54.91 47.02 41.59 47.02 14.19 23.94 27.51 23.94 54.91"/><path d="M11.74,41.29c2.91,1.68,4.7.9,4.7-1.56v0c0-2.42-1.73-4.36-3.51-5.68l2.56-1c.53-.2.86-.4.86-1.11a2.69,2.69,0,0,0-1.45-2.11L8.53,26.14c-.67-.38-1.23-.15-1.23.53a2.59,2.59,0,0,0,1.23,1.94l4,2.32L10,32a.82.82,0,0,0-.61.82,2.59,2.59,0,0,0,1.23,1.94l.45.26c1.6.93,2.56,2.07,2.56,3.14v0c0,1-.77,1.14-1.85.52a8.05,8.05,0,0,1-2.56-2.45,2.87,2.87,0,0,0-.91-.89c-.75-.43-1.39-.16-1.39.59a2.61,2.61,0,0,0,.49,1.31A13.39,13.39,0,0,0,11.74,41.29Zm20,2.07,3.66-2.11c4.11-2.37,6.95-6.86,6.95-10.54v0c0-3.68-2.84-4.86-6.95-2.49L31.76,30.3a2.94,2.94,0,0,0-1.43,2.26v10.2C30.33,43.56,31,43.83,31.76,43.36Zm1.44-11.3,2.22-1.28c2.35-1.36,3.94-.65,3.94,1.66v0a7.62,7.62,0,0,1-3.94,6.18L33.2,39.94ZM47.45,13.44,24.37.12a.83.83,0,0,0-.86,0L.43,13.44a.85.85,0,0,0-.43.75V41.58a.85.85,0,0,0,.43.75L23.51,55.66a.9.9,0,0,0,.86,0L47.45,42.33a.85.85,0,0,0,.43-.75V14.19A.85.85,0,0,0,47.45,13.44Zm-24.37,40L1.73,41.09V15.68L23.08,28v25.4Zm.86-26.9L2.59,14.19,23.94,1.86,45.29,14.19ZM46.16,41.09,24.81,53.41V28L46.16,15.68V41.09Z"/></g></g></svg>