<svg xmlns="http://www.w3.org/2000/svg" viewBox="0 0 512 390"><defs><style>.cls-1{fill:#fee648;}</style></defs><g id="Livello_2" data-name="Livello 2"><g id="Livello_2-2" data-name="Livello 2"><path class="cls-1" d="M467,90H165a45,45,0,0,1,0-90H467a45,45,0,0,1,0,90ZM165,30a15,15,0,0,0,0,30H467a15,15,0,0,0,0-30Z"/><path class="cls-1" d="M467,240H165a45,45,0,0,1,0-90H467a45,45,0,0,1,0,90ZM165,180a15,15,0,0,0,0,30H467a15,15,0,0,0,0-30Z"/><path class="cls-1" d="M467,390H165a45,45,0,0,1,0-90H467a45,45,0,0,1,0,90ZM165,330a15,15,0,0,0,0,30H467a15,15,0,0,0,0-30Z"/><path class="cls-1" d="M45,90A45,45,0,1,1,90,45,45.05,45.05,0,0,1,45,90Zm0-60A15,15,0,1,0,60,45,15,15,0,0,0,45,30Z"/><path class="cls-1" d="M45,240a45,45,0,1,1,45-45A45.05,45.05,0,0,1,45,240Zm0-60a15,15,0,1,0,15,15A15,15,0,0,0,45,180Z"/><path class="cls-1" d="M45,390a45,45,0,1,1,45-45A45.05,45.05,0,0,1,45,390Zm0-60a15,15,0,1,0,15,15A15,15,0,0,0,45,330Z"/></g></g></svg>