<svg xmlns="http://www.w3.org/2000/svg" viewBox="0 0 105.32 105.32"><defs><style>.cls-1{fill:#fee648;}.cls-2{fill:#e7a532;}.cls-3{fill:#e8e6ed;}.cls-4{fill:#d1d0d8;}.cls-5{fill:#bdbcc4;}</style></defs><g id="Livello_2" data-name="Livello 2"><g id="Livello_2-2" data-name="Livello 2"><path class="cls-1" d="M103.77,5.66v94a4.11,4.11,0,0,1-4.11,4.11h-94a4.11,4.11,0,0,1-4.12-4.11v-94A4.11,4.11,0,0,1,5.66,1.54h94A4.11,4.11,0,0,1,103.77,5.66Z"/><path class="cls-2" d="M103.77,5.66v94a4.11,4.11,0,0,1-4.11,4.11H71.86C100.34,85,95.56,23.65,92.8,1.54h6.86a4.11,4.11,0,0,1,4.11,4.12Z"/><path class="cls-3" d="M38.11,25.69V37.4a2.05,2.05,0,0,1-2,2.06H23.14a2.06,2.06,0,0,1-2.06-2.06V25.69a2.06,2.06,0,0,1,2.06-2.05H36.06A2.05,2.05,0,0,1,38.11,25.69Z"/><path class="cls-4" d="M38.11,25.69V37.4a2.05,2.05,0,0,1-2,2.06H26.82c4.4-4.86,4.75-12.07,4.58-15.82h4.66A2.05,2.05,0,0,1,38.11,25.69Z"/><path class="cls-4" d="M61.17,25.69V37.4a2.05,2.05,0,0,1-2.05,2.06H46.2a2.06,2.06,0,0,1-2.06-2.06V25.69a2.06,2.06,0,0,1,2.06-2.05H59.12A2.05,2.05,0,0,1,61.17,25.69Z"/><path class="cls-5" d="M61.17,25.69V37.4a2.05,2.05,0,0,1-2.05,2.06H49.88c4.4-4.86,4.75-12.07,4.58-15.82h4.66A2.05,2.05,0,0,1,61.17,25.69Z"/><path class="cls-3" d="M84.23,25.69V37.4a2.05,2.05,0,0,1-2,2.06H69.26a2.05,2.05,0,0,1-2.05-2.06V25.69a2.05,2.05,0,0,1,2.05-2.05H82.18A2.05,2.05,0,0,1,84.23,25.69Z"/><path class="cls-4" d="M84.23,25.69V37.4a2.05,2.05,0,0,1-2,2.06H72.94c4.41-4.86,4.75-12.07,4.58-15.82h4.66A2.05,2.05,0,0,1,84.23,25.69Z"/><path class="cls-4" d="M38.11,46.8V58.51a2.05,2.05,0,0,1-2,2.06H23.14a2.06,2.06,0,0,1-2.06-2.06V46.8a2.06,2.06,0,0,1,2.06-2H36.06a2.05,2.05,0,0,1,2,2Z"/><path class="cls-5" d="M38.11,46.8V58.51a2.05,2.05,0,0,1-2,2.06H26.82c4.4-4.86,4.75-12.07,4.58-15.82h4.66a2.05,2.05,0,0,1,2,2Z"/><path class="cls-3" d="M61.17,46.8V58.51a2.05,2.05,0,0,1-2.05,2.06H46.2a2.06,2.06,0,0,1-2.06-2.06V46.8a2.06,2.06,0,0,1,2.06-2H59.12a2.05,2.05,0,0,1,2.05,2Z"/><path class="cls-4" d="M61.17,46.8V58.51a2.05,2.05,0,0,1-2.05,2.06H49.88c4.4-4.86,4.75-12.07,4.58-15.82h4.66a2.05,2.05,0,0,1,2.05,2Z"/><path class="cls-4" d="M84.23,46.8V58.51a2.05,2.05,0,0,1-2,2.06H69.26a2.05,2.05,0,0,1-2.05-2.06V46.8a2.05,2.05,0,0,1,2.05-2H82.18a2.05,2.05,0,0,1,2,2Z"/><path class="cls-5" d="M84.23,46.8V58.51a2.05,2.05,0,0,1-2,2.06H72.94c4.41-4.86,4.75-12.07,4.58-15.82h4.66a2.05,2.05,0,0,1,2,2Z"/><path class="cls-3" d="M38.11,67.91V79.62a2.05,2.05,0,0,1-2,2.06H23.14a2.06,2.06,0,0,1-2.06-2.06V67.91a2.06,2.06,0,0,1,2.06-2H36.06A2.05,2.05,0,0,1,38.11,67.91Z"/><path class="cls-4" d="M38.11,67.91V79.62a2.05,2.05,0,0,1-2,2.06H26.82c4.4-4.86,4.75-12.08,4.58-15.82h4.66A2.05,2.05,0,0,1,38.11,67.91Z"/><path class="cls-4" d="M61.17,67.91V79.62a2.05,2.05,0,0,1-2.05,2.06H46.2a2.06,2.06,0,0,1-2.06-2.06V67.91a2.06,2.06,0,0,1,2.06-2H59.12A2.05,2.05,0,0,1,61.17,67.91Z"/><path class="cls-5" d="M61.17,67.91V79.62a2.05,2.05,0,0,1-2.05,2.06H49.88c4.4-4.86,4.75-12.08,4.58-15.82h4.66A2.05,2.05,0,0,1,61.17,67.91Z"/><path class="cls-3" d="M84.23,67.91V79.62a2.05,2.05,0,0,1-2,2.06H69.26a2.05,2.05,0,0,1-2.05-2.06V67.91a2.05,2.05,0,0,1,2.05-2H82.18A2.05,2.05,0,0,1,84.23,67.91Z"/><path class="cls-4" d="M84.23,67.91V79.62a2.05,2.05,0,0,1-2,2.06H72.94c4.41-4.86,4.75-12.08,4.58-15.82h4.66A2.05,2.05,0,0,1,84.23,67.91Z"/><path d="M84.41,105.32H5.66A5.67,5.67,0,0,1,0,99.66V69.8a1.55,1.55,0,1,1,3.09,0V99.66a2.57,2.57,0,0,0,2.57,2.57H84.41a1.55,1.55,0,1,1,0,3.09Z"/><path d="M1.54,64.24A1.54,1.54,0,0,1,0,62.69v-57A5.67,5.67,0,0,1,5.66,0H20.55a1.55,1.55,0,0,1,0,3.09H5.66A2.57,2.57,0,0,0,3.09,5.66v57A1.55,1.55,0,0,1,1.54,64.24Z"/><path d="M99.66,105.32H91.51a1.55,1.55,0,0,1,0-3.09h8.15a2.57,2.57,0,0,0,2.57-2.57v-94a2.57,2.57,0,0,0-2.57-2.57h-72a1.55,1.55,0,0,1,0-3.09h72a5.67,5.67,0,0,1,5.66,5.66v94A5.67,5.67,0,0,1,99.66,105.32Z"/><path d="M36.06,41H23.14a3.6,3.6,0,0,1-3.6-3.6V25.69a3.61,3.61,0,0,1,3.6-3.6H36.06a3.6,3.6,0,0,1,3.59,3.6V37.4A3.6,3.6,0,0,1,36.06,41ZM23.14,25.18a.51.51,0,0,0-.51.51V37.4a.51.51,0,0,0,.51.52H36.06a.51.51,0,0,0,.51-.52V25.69a.51.51,0,0,0-.51-.51Z"/><path d="M59.12,41H46.2a3.6,3.6,0,0,1-3.6-3.6V25.69a3.61,3.61,0,0,1,3.6-3.6H59.12a3.61,3.61,0,0,1,3.6,3.6V37.4A3.6,3.6,0,0,1,59.12,41ZM46.2,25.18a.51.51,0,0,0-.51.51V37.4a.51.51,0,0,0,.51.52H59.12a.51.51,0,0,0,.51-.52V25.69a.51.51,0,0,0-.51-.51Z"/><path d="M82.18,41H69.26a3.6,3.6,0,0,1-3.6-3.6V25.69a3.61,3.61,0,0,1,3.6-3.6H82.18a3.61,3.61,0,0,1,3.6,3.6V37.4A3.6,3.6,0,0,1,82.18,41ZM69.26,25.18a.51.51,0,0,0-.51.51V37.4a.51.51,0,0,0,.51.52H82.18a.51.51,0,0,0,.51-.52V25.69a.51.51,0,0,0-.51-.51Z"/><path d="M36.06,62.11H23.14a3.6,3.6,0,0,1-3.6-3.6V46.8a3.61,3.61,0,0,1,3.6-3.6H36.06a3.6,3.6,0,0,1,3.59,3.6V58.51A3.6,3.6,0,0,1,36.06,62.11ZM23.14,46.29a.51.51,0,0,0-.51.51V58.51a.51.51,0,0,0,.51.52H36.06a.51.51,0,0,0,.51-.52V46.8a.51.51,0,0,0-.51-.51Z"/><path d="M59.12,62.11H46.2a3.6,3.6,0,0,1-3.6-3.6V46.8a3.61,3.61,0,0,1,3.6-3.6H59.12a3.61,3.61,0,0,1,3.6,3.6V58.51A3.6,3.6,0,0,1,59.12,62.11ZM46.2,46.29a.51.51,0,0,0-.51.51V58.51a.51.51,0,0,0,.51.52H59.12a.51.51,0,0,0,.51-.52V46.8a.51.51,0,0,0-.51-.51Z"/><path d="M82.18,62.11H69.26a3.6,3.6,0,0,1-3.6-3.6V46.8a3.61,3.61,0,0,1,3.6-3.6H82.18a3.61,3.61,0,0,1,3.6,3.6V58.51A3.6,3.6,0,0,1,82.18,62.11ZM69.26,46.29a.51.51,0,0,0-.51.51V58.51a.51.51,0,0,0,.51.52H82.18a.51.51,0,0,0,.51-.52V46.8a.51.51,0,0,0-.51-.51Z"/><path d="M36.06,83.22H23.14a3.6,3.6,0,0,1-3.6-3.6V67.91a3.61,3.61,0,0,1,3.6-3.6H36.06a3.6,3.6,0,0,1,3.59,3.6V79.62A3.6,3.6,0,0,1,36.06,83.22ZM23.14,67.4a.51.51,0,0,0-.51.51V79.62a.51.51,0,0,0,.51.52H36.06a.51.51,0,0,0,.51-.52V67.91a.51.51,0,0,0-.51-.51Z"/><path d="M59.12,83.22H46.2a3.6,3.6,0,0,1-3.6-3.6V67.91a3.61,3.61,0,0,1,3.6-3.6H59.12a3.61,3.61,0,0,1,3.6,3.6V79.62A3.6,3.6,0,0,1,59.12,83.22ZM46.2,67.4a.51.51,0,0,0-.51.51V79.62a.51.51,0,0,0,.51.52H59.12a.51.51,0,0,0,.51-.52V67.91a.51.51,0,0,0-.51-.51Z"/><path d="M82.18,83.22H69.26a3.6,3.6,0,0,1-3.6-3.6V67.91a3.61,3.61,0,0,1,3.6-3.6H82.18a3.61,3.61,0,0,1,3.6,3.6V79.62A3.6,3.6,0,0,1,82.18,83.22ZM69.26,67.4a.51.51,0,0,0-.51.51V79.62a.51.51,0,0,0,.51.52H82.18a.51.51,0,0,0,.51-.52V67.91a.51.51,0,0,0-.51-.51Z"/></g></g></svg>