<svg xmlns="http://www.w3.org/2000/svg" viewBox="0 0 416.95 307.65"><defs><style>.cls-1{fill:#fee648;}.cls-2{fill:#e5e5e5;}.cls-3{fill:#e7a532;}.cls-4{fill:#146699;}</style></defs><g id="Livello_2" data-name="Livello 2"><g id="Livello_2-2" data-name="Livello 2"><path class="cls-1" d="M372.38,307.65H20a20,20,0,0,1-20-20V66.24a20,20,0,0,1,20-20H372.38a20,20,0,0,1,20,20V287.65A20,20,0,0,1,372.38,307.65Z"/><path class="cls-2" d="M392.38,66.25V91.46L214.47,228.13a30,30,0,0,1-36.56,0L0,91.46V66.25a20,20,0,0,1,20-20H372.38A20,20,0,0,1,392.38,66.25Z"/><path class="cls-3" d="M202.28,141.63l190.1,146a20,20,0,0,1-20,20H20a20,20,0,0,1-20-20l190.1-146a10,10,0,0,1,12.18,0Z"/><path class="cls-2" d="M264.68,189.56l-50.21,38.57a30,30,0,0,1-36.56,0L127.7,189.56l62.4-47.93a10,10,0,0,1,12.18,0Z"/><path class="cls-1" d="M190.1,212.27,0,66.24a20,20,0,0,1,20-20H372.38a20,20,0,0,1,20,20l-190.1,146A10,10,0,0,1,190.1,212.27Z"/><path class="cls-4" d="M311.14,281H279a5,5,0,0,1-5-5V253.89a5,5,0,0,1,5-5h32.14a5,5,0,0,1,5,5V276A5,5,0,0,1,311.14,281Z"/><path class="cls-2" d="M252.06,260.66H224.23a5,5,0,1,1,0-10h27.83a5,5,0,0,1,0,10Z"/><path class="cls-2" d="M252.06,281H154.23a5,5,0,1,1,0-10h97.83a5,5,0,0,1,0,10Z"/><circle class="cls-3" cx="345.43" cy="71.52" r="71.51"/><path class="cls-1" d="M314.3,47.12l10.21,24.39L314.3,95.9a5,5,0,0,0,6.58,6.53L382.5,76.11a5,5,0,0,0,0-9.2L320.88,40.59A5,5,0,0,0,314.3,47.12Z"/></g></g></svg>