<svg xmlns="http://www.w3.org/2000/svg" viewBox="0 0 64.41 71.57"><defs><style>.cls-1{fill:#ddd3ce;}.cls-2{fill:#f9f3f1;}.cls-3{fill:#fee648;}.cls-4{fill:#e7a532;}</style></defs><g id="Livello_2" data-name="Livello 2"><g id="Livello_1-2" data-name="Livello 1"><path class="cls-1" d="M59.16,70.41H5.24a4.2,4.2,0,0,1-4.19-4.19V60.38L63.36,49.06V66.22A4.2,4.2,0,0,1,59.16,70.41Z"/><path class="cls-2" d="M47.75,66.22H5.25A4.2,4.2,0,0,1,1.05,62V9.93a4.2,4.2,0,0,1,4.2-4.2H59.16a4.2,4.2,0,0,1,4.2,4.2V50.61c0,1.12-2.54,2.19-3.33,3l-9.31,9.31c-.78.79-1.85,3.33-3,3.33Z"/><path class="cls-1" d="M42.71,66.22H46a3.45,3.45,0,0,0,3.45-3.45v-7a3.45,3.45,0,0,1,3.44-3.45h7a3.44,3.44,0,0,0,3.45-3.44v1.7a4.25,4.25,0,0,1-1.23,3L50.71,65a4.24,4.24,0,0,1-3,1.23Z"/><path class="cls-3" d="M63.36,9.92V20.71H1.05V9.92A4.2,4.2,0,0,1,5.24,5.73H59.16A4.2,4.2,0,0,1,63.36,9.92Z"/><path class="cls-4" d="M12.92,13.05H10.86A3.19,3.19,0,0,1,7.67,9.86V5.73h2.1V9.86A1.09,1.09,0,0,0,10.86,11C11.44,11,13.5,13.05,12.92,13.05Z"/><path class="cls-4" d="M51,13.05H49a3.19,3.19,0,0,1-3.19-3.19V5.73h2.1V9.86A1.09,1.09,0,0,0,49,11,3.65,3.65,0,0,1,51,13.05Z"/><path class="cls-3" d="M13.33,34h-5a1,1,0,0,1-1-1V28a1,1,0,0,1,1-1h5a1,1,0,0,1,1,1v5A1,1,0,0,1,13.33,34Z"/><path class="cls-3" d="M27.58,34h-5a1,1,0,0,1-1-1V28a1,1,0,0,1,1-1h5a1,1,0,0,1,1,1v5A1,1,0,0,1,27.58,34Z"/><path class="cls-3" d="M41.82,34h-5a1,1,0,0,1-1-1V28a1,1,0,0,1,1-1h5a1,1,0,0,1,1,1v5A1,1,0,0,1,41.82,34Z"/><path class="cls-3" d="M56.07,34h-5a1,1,0,0,1-1-1V28a1,1,0,0,1,1-1h5a1,1,0,0,1,1,1v5A1,1,0,0,1,56.07,34Z"/><path class="cls-3" d="M13.33,47h-5a1,1,0,0,1-1-1V41a1,1,0,0,1,1-1h5a1,1,0,0,1,1,1v5A1,1,0,0,1,13.33,47Z"/><path class="cls-3" d="M27.58,47h-5a1,1,0,0,1-1-1V41a1,1,0,0,1,1-1h5a1,1,0,0,1,1,1v5A1,1,0,0,1,27.58,47Z"/><path class="cls-3" d="M41.82,47h-5a1,1,0,0,1-1-1V41a1,1,0,0,1,1-1h5a1,1,0,0,1,1,1v5A1,1,0,0,1,41.82,47Z"/><path class="cls-3" d="M56.07,47.27h-5a1,1,0,0,1-1-1v-5a1,1,0,0,1,1-1h5a1,1,0,0,1,1,1v5A1,1,0,0,1,56.07,47.27Z"/><path class="cls-3" d="M13.33,59.92h-5a1,1,0,0,1-1-1v-5a1,1,0,0,1,1-1h5a1,1,0,0,1,1,1v5A1,1,0,0,1,13.33,59.92Z"/><path class="cls-3" d="M27.58,59.92h-5a1,1,0,0,1-1-1v-5a1,1,0,0,1,1-1h5a1,1,0,0,1,1,1v5A1,1,0,0,1,27.58,59.92Z"/><path class="cls-3" d="M41.82,59.92h-5a1,1,0,0,1-1-1v-5a1,1,0,0,1,1-1h5a1,1,0,0,1,1,1v5A1,1,0,0,1,41.82,59.92Z"/><path d="M51.08,35.15h5a2,2,0,0,0,2-2v-5a2,2,0,0,0-2-2.05h-5a2.05,2.05,0,0,0-2,2.05v5A2.05,2.05,0,0,0,51.08,35.15Zm.05-7H56v4.89H51.13Zm-.05,20.27h5a2,2,0,0,0,2-2v-5a2,2,0,0,0-2-2h-5a2.05,2.05,0,0,0-2,2v5A2.05,2.05,0,0,0,51.08,48.43Zm.05-7H56v4.89H51.13Zm-14.3-6.29h5a2.05,2.05,0,0,0,2-2v-5a2.05,2.05,0,0,0-2-2.05h-5a2.05,2.05,0,0,0-2,2.05v5A2.05,2.05,0,0,0,36.83,35.15Zm.05-7h4.89v4.89H36.88ZM13.33,52h-5a2.05,2.05,0,0,0-2,2v5a2.05,2.05,0,0,0,2.05,2.05h5A2.05,2.05,0,0,0,15.38,59v-5A2.05,2.05,0,0,0,13.33,52Zm-.05,7H8.39V54.1h4.89Zm.05-32.93h-5a2.05,2.05,0,0,0-2,2.05v5a2.05,2.05,0,0,0,2.05,2h5a2.05,2.05,0,0,0,2.05-2v-5A2.05,2.05,0,0,0,13.33,26.06Zm-.05,7H8.39V28.16h4.89ZM36.83,48.12h5a2.05,2.05,0,0,0,2-2v-5a2.05,2.05,0,0,0-2-2h-5a2.05,2.05,0,0,0-2,2v5A2.05,2.05,0,0,0,36.83,48.12Zm.05-7h4.89V46H36.88ZM59.16,4.79H54.67V3.19A3.19,3.19,0,0,0,51.49,0H51a3.19,3.19,0,0,0-3.18,3.19v1.6H16.59V3.19A3.19,3.19,0,0,0,13.4,0h-.48A3.19,3.19,0,0,0,9.73,3.19v1.6H5.25A5.26,5.26,0,0,0,0,10V66.33a5.25,5.25,0,0,0,5.24,5.24H59.16a5.25,5.25,0,0,0,5.25-5.24V10a5.26,5.26,0,0,0-5.25-5.25Zm-9.25-1.6A1.09,1.09,0,0,1,51,2.1h.49a1.09,1.09,0,0,1,1.09,1.09v1.6H49.91Zm-38.08,0A1.09,1.09,0,0,1,12.92,2.1h.48a1.09,1.09,0,0,1,1.09,1.09v1.6H11.83V3.19ZM62.31,66.33a3.15,3.15,0,0,1-3.15,3.14H5.24A3.15,3.15,0,0,1,2.1,66.33h0a5.24,5.24,0,0,0,3.15,1.06h42.5a5.23,5.23,0,0,0,3.72-1.54L62.31,55ZM50.4,63.94a4.57,4.57,0,0,0,.12-1v-7a2.41,2.41,0,0,1,2.4-2.4h7A4.59,4.59,0,0,0,61,53.37ZM62.31,19.77H17.64a1.05,1.05,0,0,0,0,2.1H62.31V49a2.41,2.41,0,0,1-2.4,2.4h-7a4.49,4.49,0,0,0-4.49,4.49v7A2.4,2.4,0,0,1,46,65.28H5.25A3.15,3.15,0,0,1,2.1,62.13V21.87H13.44a1.05,1.05,0,1,0,0-2.1H2.1V10A3.15,3.15,0,0,1,5.25,6.89H9.73V10a3.19,3.19,0,0,0,3.19,3.19,1,1,0,1,0,0-2.1A1.09,1.09,0,0,1,11.83,10V6.89h36V10A3.19,3.19,0,0,0,51,13.16a1,1,0,0,0,0-2.1A1.09,1.09,0,0,1,49.91,10V6.89h9.25A3.16,3.16,0,0,1,62.31,10ZM13.33,39h-5a2.05,2.05,0,0,0-2,2v5a2.05,2.05,0,0,0,2.05,2h5a2.05,2.05,0,0,0,2.05-2v-5A2.05,2.05,0,0,0,13.33,39Zm-.05,7H8.39V41.13h4.89Zm9.3-10.87h5a2.05,2.05,0,0,0,2-2v-5a2.05,2.05,0,0,0-2-2.05h-5a2,2,0,0,0-2,2.05v5A2,2,0,0,0,22.58,35.15Zm.05-7h4.9v4.89h-4.9ZM36.88,59a1.05,1.05,0,0,0-2.1,0,2.05,2.05,0,0,0,2,2.05h5a2.05,2.05,0,0,0,2-2.05v-5a2.05,2.05,0,0,0-2-2h-5a2.05,2.05,0,0,0-2,2v1.44a1.05,1.05,0,0,0,2.1,0V54.1h4.89V59ZM22.58,48.12h5a2.05,2.05,0,0,0,2-2v-5a2.05,2.05,0,0,0-2-2h-5a2,2,0,0,0-2,2v5A2,2,0,0,0,22.58,48.12Zm.05-7h4.9V46h-4.9Zm-.05,20h5a2.05,2.05,0,0,0,2-2.05v-5a2.05,2.05,0,0,0-2-2h-5a2,2,0,0,0-2,2v5A2,2,0,0,0,22.58,61.09Zm.05-7h4.9V59h-4.9Z"/></g></g></svg>