<svg xmlns="http://www.w3.org/2000/svg" viewBox="0 0 512 371.8"><defs><style>.cls-1{fill:#e7a532;}.cls-2{fill:#fee648;}</style></defs><g id="Livello_2" data-name="Livello 2"><g id="Livello_2-2" data-name="Livello 2"><path class="cls-1" d="M215,156.48a112,112,0,1,0-61.16,59.63A111.69,111.69,0,0,1,215,156.48Z"/><path class="cls-2" d="M43.18,112.08a112.1,112.1,0,0,1,90.49-110,112.08,112.08,0,1,0,0,220,112.1,112.1,0,0,1-90.49-110Z"/><path class="cls-2" d="M154.16,175.09a7.5,7.5,0,0,1-7.5-7.5,28.11,28.11,0,1,0-56.22,0,7.5,7.5,0,0,1-15,0,43.11,43.11,0,1,1,86.22,0A7.49,7.49,0,0,1,154.16,175.09Z"/><path class="cls-2" d="M88.65,95.49H64a7.5,7.5,0,1,1,0-15H88.65a7.5,7.5,0,0,1,0,15Z"/><path class="cls-2" d="M173.08,95.49H148.45a7.5,7.5,0,0,1,0-15h24.63a7.5,7.5,0,0,1,0,15Z"/><path class="cls-1" d="M297.77,155.69a112,112,0,1,0,61.16,59.63,111.72,111.72,0,0,1-61.16-59.63Z"/><path class="cls-2" d="M187,259.72a112.11,112.11,0,0,1,90.55-110,112.08,112.08,0,1,0,0,220,112.11,112.11,0,0,1-90.55-110Z"/><path class="cls-2" d="M237.42,253.6a7.49,7.49,0,0,1-7.5-7.5v-22a7.5,7.5,0,0,1,15,0v22A7.5,7.5,0,0,1,237.42,253.6Z"/><path class="cls-2" d="M300.26,253.6a7.5,7.5,0,0,1-7.5-7.5v-22a7.5,7.5,0,0,1,15,0v22A7.49,7.49,0,0,1,300.26,253.6Z"/><path class="cls-2" d="M306,302.83H231.66a7.5,7.5,0,0,1,0-15H306a7.5,7.5,0,0,1,0,15Z"/><circle class="cls-1" cx="399.92" cy="112.08" r="112.08"/><path class="cls-2" d="M330.6,112.08a112.1,112.1,0,0,1,90.7-110,112.08,112.08,0,1,0,0,220.06,112.09,112.09,0,0,1-90.7-110Z"/><path class="cls-2" d="M410.44,175.09A43.16,43.16,0,0,1,367.33,132a7.5,7.5,0,0,1,15,0,28.11,28.11,0,0,0,56.22,0,7.5,7.5,0,1,1,15,0A43.16,43.16,0,0,1,410.44,175.09Z"/><path class="cls-2" d="M387,98.89a7.49,7.49,0,0,1-7.5-7.5,10.43,10.43,0,0,0-20.86,0,7.5,7.5,0,0,1-15,0,25.43,25.43,0,0,1,50.86,0A7.5,7.5,0,0,1,387,98.89Z"/><path class="cls-2" d="M469.78,98.89a7.5,7.5,0,0,1-7.5-7.5,10.43,10.43,0,1,0-20.86,0,7.5,7.5,0,1,1-15,0,25.43,25.43,0,1,1,50.86,0A7.5,7.5,0,0,1,469.78,98.89Z"/></g></g></svg>