<svg id="Livello_1" data-name="Livello 1" xmlns="http://www.w3.org/2000/svg" viewBox="0 0 83.41 83.42"><defs><style>.cls-1{fill:#ff424e;}.cls-2{fill:#d13d36;}.cls-3{fill:#ddad6a;}.cls-4{fill:#596aa2;}.cls-5{fill:#cfa063;}</style></defs><path id="Tracciato_13" data-name="Tracciato 13" class="cls-1" d="M45.41.31,24.6,12.38l2.83,6.46,10.72,8.67L46.6,24.6,54.38,28l9.48-8,4.89-7.6L47.78.31a2.44,2.44,0,0,0-2.37,0Z"/><path id="Tracciato_14" data-name="Tracciato 14" class="cls-1" d="M68.75,12.38V35.56a2.39,2.39,0,0,1-1.27,2.1L47.77,48.56a2.45,2.45,0,0,1-2.35,0L25.87,37.66a2.41,2.41,0,0,1-1.27-2.1V12.38l22,12.22Z"/><path id="Tracciato_15" data-name="Tracciato 15" class="cls-2" d="M68.75,12.38V35.56a2.39,2.39,0,0,1-1.27,2.1L47.77,48.56a2.67,2.67,0,0,1-1.17.3V24.6Z"/><path id="Tracciato_16" data-name="Tracciato 16" class="cls-3" d="M82.44,57,68.26,77.55a14.69,14.69,0,0,1-11.73,5.86H9.93L7.33,81V56.09l2.61-2H9a6.68,6.68,0,0,0,4.3-1.61,16.71,16.71,0,0,1,11.2-4.21c5.62,0,8.94,2.06,12.56,5.23a2.93,2.93,0,0,0,1.61.59H56.53a4.89,4.89,0,1,1,.14,9.77H39.26a2.45,2.45,0,0,0,0,4.89H58.15a5.87,5.87,0,0,0,3.61-1.56L75,50.77a4.88,4.88,0,0,1,6.46-.64,4.93,4.93,0,0,1,1,6.89Z"/><path id="Tracciato_17" data-name="Tracciato 17" class="cls-4" d="M12.38,83.42H2.44A2.45,2.45,0,0,1,0,81H0V51.65A2.45,2.45,0,0,1,2.44,49.2h9.94a2.45,2.45,0,0,1,2.45,2.44h0V81a2.45,2.45,0,0,1-2.45,2.44h0Z"/><g id="Raggruppa_1" data-name="Raggruppa 1"><path id="Tracciato_18" data-name="Tracciato 18" class="cls-5" d="M51.65,63.87H46.59V54.09h9.94a4.89,4.89,0,1,1,0,9.78Z"/><path id="Tracciato_19" data-name="Tracciato 19" class="cls-5" d="M82.44,57,68.26,77.55a14.7,14.7,0,0,1-11.73,5.87H46.59V68.75H58.15a5.87,5.87,0,0,0,3.61-1.56L75,50.77a4.88,4.88,0,0,1,6.46-.64,4.93,4.93,0,0,1,1,6.89Z"/></g></svg>