<svg xmlns="http://www.w3.org/2000/svg" width="83.407" height="83.416" viewBox="0 0 83.407 83.416">
  <g id="hand" transform="translate(-0.026 0)">
    <path id="Tracciato_13" data-name="Tracciato 13" d="M171.833.308,151.026,12.382l2.83,6.46,10.717,8.669,8.447-2.91,7.789,3.366,9.48-7.982,4.888-7.6L174.207.308a2.444,2.444,0,0,0-2.374,0Z" transform="translate(-126.399)" fill="#5daeff"/>
    <path id="Tracciato_14" data-name="Tracciato 14" d="M195.177,76V99.183a2.41,2.41,0,0,1-1.271,2.1l-19.713,10.9a2.493,2.493,0,0,1-2.346,0l-19.55-10.9a2.41,2.41,0,0,1-1.271-2.1V76L173.02,88.219Z" transform="translate(-126.399 -63.618)" fill="#5daeff"/>
    <path id="Tracciato_15" data-name="Tracciato 15" d="M308.183,76V99.183a2.41,2.41,0,0,1-1.271,2.1l-19.713,10.9a2.605,2.605,0,0,1-1.173.293V88.219Z" transform="translate(-239.405 -63.618)" fill="#5098e1"/>
    <path id="Tracciato_16" data-name="Tracciato 16" d="M120.132,305.048l-14.174,20.528a14.723,14.723,0,0,1-11.73,5.865h-46.6L45.026,329V304.119l2.607-2H46.7a6.707,6.707,0,0,0,4.3-1.613A16.723,16.723,0,0,1,62.2,296.3c5.621,0,8.944,2.053,12.561,5.23a2.964,2.964,0,0,0,1.613.586H94.228a4.888,4.888,0,1,1,0,9.775H76.958a2.444,2.444,0,1,0,0,4.888H95.841a5.907,5.907,0,0,0,3.617-1.564l13.2-16.422a4.872,4.872,0,0,1,6.452-.635A4.925,4.925,0,0,1,120.132,305.048Z" transform="translate(-37.669 -248.026)" fill="#ddad6a"/>
    <path id="Tracciato_17" data-name="Tracciato 17" d="M12.408,336.213H2.47a2.442,2.442,0,0,1-2.444-2.444V304.444A2.442,2.442,0,0,1,2.47,302h9.938a2.442,2.442,0,0,1,2.444,2.444V333.77a2.442,2.442,0,0,1-2.444,2.443Z" transform="translate(0 -252.798)" fill="#596aa2"/>
    <g id="Raggruppa_1" data-name="Raggruppa 1" transform="translate(46.621 49.196)">
      <path id="Tracciato_18" data-name="Tracciato 18" d="M291.077,341.775h-5.051V332h9.938a4.888,4.888,0,1,1,0,9.776Z" transform="translate(-286.026 -327.106)" fill="#cfa063"/>
      <path id="Tracciato_19" data-name="Tracciato 19" d="M321.868,309.787l-14.174,20.528a14.723,14.723,0,0,1-11.73,5.865h-9.938V321.517h11.551a5.908,5.908,0,0,0,3.617-1.564l13.2-16.422a4.872,4.872,0,0,1,6.452-.635,4.925,4.925,0,0,1,1.022,6.891Z" transform="translate(-286.026 -301.96)" fill="#cfa063"/>
    </g>
  </g>
</svg>
