<svg xmlns="http://www.w3.org/2000/svg" width="25.101" height="22.089" viewBox="0 0 25.101 22.089">
  <g id="ArtStation-logomark-white" transform="translate(-51.4 -51.5)">
    <path id="Tracciato_4" data-name="Tracciato 4" d="M51.4,123.3l2.112,3.654h0a2.548,2.548,0,0,0,2.254,1.4H69.835L66.916,123.3Z" transform="translate(0 -54.765)" fill="#fff"/>
    <path id="Tracciato_5" data-name="Tracciato 5" d="M108.155,68.558a2.525,2.525,0,0,0-.4-1.376L99.5,52.852A2.513,2.513,0,0,0,97.27,51.5H92.9l12.74,22.064,2.017-3.488A2.61,2.61,0,0,0,108.155,68.558Z" transform="translate(-31.654)" fill="#fff"/>
    <path id="Tracciato_6" data-name="Tracciato 6" d="M71.564,76.446,65.894,66.6,60.2,76.446Z" transform="translate(-6.712 -11.517)" fill="#fff"/>
  </g>
</svg>
