<svg xmlns="http://www.w3.org/2000/svg" width="25.132" height="25.112" viewBox="0 0 25.132 25.112">
  <path id="logo_pinterest" d="M44.6,32a12.555,12.555,0,0,0-5.038,24.053,11.118,11.118,0,0,1,.219-2.881c.241-1.02,1.614-6.843,1.614-6.843a4.793,4.793,0,0,1-.4-1.984c0-1.861,1.076-3.25,2.421-3.25a1.679,1.679,0,0,1,1.692,1.883c0,1.149-.734,2.864-1.11,4.455a1.941,1.941,0,0,0,1.984,2.415c2.376,0,3.979-3.054,3.979-6.675,0-2.752-1.855-4.808-5.223-4.808a5.948,5.948,0,0,0-6.181,6.013,3.619,3.619,0,0,0,.829,2.46.614.614,0,0,1,.179.7c-.062.23-.2.785-.258,1.009a.431.431,0,0,1-.628.314c-1.754-.717-2.572-2.634-2.572-4.8,0-3.564,3.009-7.84,8.972-7.84,4.792,0,7.947,3.469,7.947,7.19,0,4.926-2.74,8.6-6.776,8.6a3.6,3.6,0,0,1-3.066-1.564s-.729,2.892-.885,3.452a10.434,10.434,0,0,1-1.261,2.69A12.556,12.556,0,1,0,44.6,32Z" transform="translate(-32.048 -32)" fill="#fff"/>
</svg>
