<svg xmlns="http://www.w3.org/2000/svg" width="26.101" height="11.121" viewBox="0 0 26.101 11.121">
  <path id="teespring-logo" d="M39.462,126.107a1.506,1.506,0,0,0-1.518,1.49,4.6,4.6,0,0,0,1.169,3.059,4.768,4.768,0,0,0,1.04.878,5.541,5.541,0,0,0,.579-1.122,5.451,5.451,0,0,0,.222-3.091c-.006-.031-.015-.063-.022-.095a1.514,1.514,0,0,0-1.469-1.119Zm-9.366,4.3a5.483,5.483,0,0,0,.58,1.122,4.79,4.79,0,0,0,1.039-.878,4.591,4.591,0,0,0,1.17-3.059,1.522,1.522,0,0,0-2.988-.371c-.006.031-.015.063-.022.095a5.516,5.516,0,0,0-.126,1.17,5.44,5.44,0,0,0,.349,1.922Zm16.859-.729,1.448.711a6.388,6.388,0,0,1-5.7,3.457,6.48,6.48,0,0,1-2.094-.347,7.382,7.382,0,0,1-10.384,0,6.463,6.463,0,0,1-2.1.347,6.382,6.382,0,0,1-5.826-3.713l1.482-.646a4.764,4.764,0,0,0,4.344,2.772,4.842,4.842,0,0,0,1.029-.111,7.05,7.05,0,0,1-.87-5.148c.015-.069.032-.136.049-.2a3.128,3.128,0,0,1,3.031-2.281l.086,0c.088,0,.177.007.264.017A3.1,3.1,0,0,1,34.5,127.6a6.211,6.211,0,0,1-2.743,5.138,5.732,5.732,0,0,0,7.306,0,6.212,6.212,0,0,1-2.743-5.138,3.1,3.1,0,0,1,2.788-3.06c.087-.01.175-.014.264-.017l.086,0a3.129,3.129,0,0,1,3.031,2.282c.017.067.033.135.049.2a7.05,7.05,0,0,1-.87,5.148,4.836,4.836,0,0,0,1.028.111,4.771,4.771,0,0,0,4.254-2.58Z" transform="translate(-22.3 -124.517)" fill="#ed2761"/>
</svg>
