<svg xmlns="http://www.w3.org/2000/svg" viewBox="0 0 45.01 52.87"><defs><style>.cls-1{fill:#635bff;}.cls-2{fill:#534cbe;}.cls-3{fill:#fff;}.cls-4{fill:#e2e1f0;}.cls-5{fill:#b4b6d7;}.cls-6{fill:#736faa;}</style></defs><g id="Livello_2" data-name="Livello 2"><g id="Livello_1-2" data-name="Livello 1"><path id="Tracciato_502" data-name="Tracciato 502" class="cls-1" d="M42.63,35.3a26.55,26.55,0,0,1-6.39,10,33.34,33.34,0,0,1-12.48,7.4,3.86,3.86,0,0,1-1.21.22H22.5a3.65,3.65,0,0,1-.74-.08,3.07,3.07,0,0,1-.52-.14,33.42,33.42,0,0,1-12.5-7.39,26.62,26.62,0,0,1-6.37-10C-.21,28.3-.07,20.59.05,14.4v-.1c0-.52,0-1.05.05-1.65A5.61,5.61,0,0,1,5.38,7.17,21.67,21.67,0,0,0,20.17.93l0,0a3.39,3.39,0,0,1,4.6,0l0,0a21.69,21.69,0,0,0,14.8,6.24,5.61,5.61,0,0,1,5.28,5.49c0,.6,0,1.13,0,1.64v0C45.07,20.55,45.22,28.28,42.63,35.3Z"/><path id="Tracciato_503" data-name="Tracciato 503" class="cls-2" d="M42.63,35.3a26.71,26.71,0,0,1-6.39,10,33.27,33.27,0,0,1-12.48,7.4,3.58,3.58,0,0,1-1.21.21V0A3.35,3.35,0,0,1,24.8.9l0,0a21.76,21.76,0,0,0,14.8,6.24,5.59,5.59,0,0,1,5.27,5.49c0,.6,0,1.13.05,1.64v0C45.07,20.55,45.22,28.28,42.63,35.3Z"/><path id="Tracciato_504" data-name="Tracciato 504" class="cls-3" d="M35.68,26.43A13.19,13.19,0,0,1,22.55,39.6H22.5a13.17,13.17,0,0,1,0-26.34h.05A13.19,13.19,0,0,1,35.68,26.43Z"/><path id="Tracciato_505" data-name="Tracciato 505" class="cls-4" d="M35.68,26.43A13.19,13.19,0,0,1,22.55,39.6V13.26A13.19,13.19,0,0,1,35.68,26.43Z"/><path id="Tracciato_506" data-name="Tracciato 506" class="cls-5" d="M28.49,24.53l-5.94,5.94-1.28,1.28a1.56,1.56,0,0,1-2.19,0L16.32,29a1.55,1.55,0,0,1,2.15-2.24l.05.05,1.66,1.66,6.11-6.12a1.55,1.55,0,0,1,2.2,2.19Z"/><path id="Tracciato_507" data-name="Tracciato 507" class="cls-6" d="M28.48,24.53l-5.93,5.94V26.08l3.74-3.74a1.55,1.55,0,0,1,2.19,2.19Z"/></g></g></svg>