<svg id="placeholder" xmlns="http://www.w3.org/2000/svg" width="25.643" height="34.479" viewBox="0 0 25.643 34.479">
  <path id="Tracciato_14" data-name="Tracciato 14" d="M109.8,103.977a5.819,5.819,0,1,0,5.819,5.819A5.826,5.826,0,0,0,109.8,103.977Zm0,0" transform="translate(-96.975 -96.975)" fill="#fff"/>
  <path id="Tracciato_15" data-name="Tracciato 15" d="M12.874,0H12.82A12.835,12.835,0,0,0,0,12.821c0,3.876,1.981,6.9,4.188,9.909L12.8,34.479s8.142-11.054,8.651-11.749c2.207-3.01,4.188-6.033,4.188-9.909A12.835,12.835,0,0,0,12.874,0Zm-.052,20.66a7.839,7.839,0,1,1,7.839-7.839A7.848,7.848,0,0,1,12.822,20.66Zm0,0" transform="translate(0)" fill="#fff"/>
</svg>
