<svg xmlns="http://www.w3.org/2000/svg" viewBox="0 0 46.76 66.5"><defs><style>.cls-1{fill:#fee648;}.cls-2{fill:#e7a532;}</style></defs><g id="Livello_2" data-name="Livello 2"><g id="Livello_1-2" data-name="Livello 1"><path class="cls-1" d="M23.38,0A23.4,23.4,0,0,0,0,23.38,23,23,0,0,0,3.51,35.65L21.8,65.58a1.83,1.83,0,0,0,1.32.9,1.94,1.94,0,0,0,2-.94l18.34-30.2a23,23,0,0,0,3.31-12A23.4,23.4,0,0,0,23.38,0Zm0,35.07A11.69,11.69,0,1,1,35.07,23.38,11.67,11.67,0,0,1,23.38,35.07Z"/><path class="cls-2" d="M23.38,0V11.69a11.69,11.69,0,0,1,0,23.38V66.5a1.92,1.92,0,0,0,1.73-1l18.34-30.2a23,23,0,0,0,3.31-12A23.4,23.4,0,0,0,23.38,0Z"/></g></g></svg>