<svg xmlns="http://www.w3.org/2000/svg" width="25.101" height="18.831" viewBox="0 0 25.101 18.831">
  <path id="logo_youtube" d="M24.934,68.157a3.811,3.811,0,0,0-3.628-3.981C18.589,64.049,15.819,64,12.988,64H12.1c-2.824,0-5.6.049-8.316.177A3.82,3.82,0,0,0,.166,68.168c-.123,1.745-.175,3.49-.172,5.232s.051,3.5.167,5.245a3.824,3.824,0,0,0,3.623,4c2.854.132,5.781.191,8.757.186s5.9-.052,8.757-.186a3.825,3.825,0,0,0,3.628-4q.177-2.625.167-5.246Q25.111,70.781,24.934,68.157ZM10.144,78.214V68.579l7.11,4.815Z" transform="translate(0.006 -64)" fill="#0f0f0f"/>
</svg>
