<svg xmlns="http://www.w3.org/2000/svg" width="25.1" height="25.101" viewBox="0 0 25.1 25.101">
  <g id="ico_instagram" transform="translate(0 0.001)">
    <path id="Tracciato_1" data-name="Tracciato 1" d="M49.78,34.092a5.245,5.245,0,0,1,5.23,5.23V49.78a5.246,5.246,0,0,1-5.23,5.23H39.321a5.246,5.246,0,0,1-5.23-5.23V39.321a5.246,5.246,0,0,1,5.23-5.23H49.78m0-2.092H39.321A7.343,7.343,0,0,0,32,39.321V49.78a7.343,7.343,0,0,0,7.321,7.32H49.78a7.343,7.343,0,0,0,7.32-7.32V39.321A7.343,7.343,0,0,0,49.78,32Z" transform="translate(-32 -32)" fill="#0f0f0f"/>
    <path id="Tracciato_2" data-name="Tracciato 2" d="M350.9,109.808a1.565,1.565,0,1,1,1.11-.459A1.565,1.565,0,0,1,350.9,109.808Z" transform="translate(-331.55 -102.486)" fill="#0f0f0f"/>
    <path id="Tracciato_3" data-name="Tracciato 3" d="M150.275,146.092a4.184,4.184,0,1,1-4.184,4.184,4.184,4.184,0,0,1,4.184-4.184m0-2.092a6.275,6.275,0,1,0,6.275,6.275A6.275,6.275,0,0,0,150.275,144Z" transform="translate(-137.725 -137.725)" fill="#0f0f0f"/>
  </g>
</svg>
