<svg id="Livello_1" data-name="Livello 1" xmlns="http://www.w3.org/2000/svg" viewBox="0 0 1072.85 221.75"><defs><style>.cls-1{font-size:139.43px;fill:#fff;stroke:#fff;stroke-miterlimit:10;stroke-width:2px;font-family:MicrosoftSansSerif, Microsoft Sans Serif;}.cls-2{fill:#fee648;}</style></defs><text class="cls-1" transform="translate(60.47 171.77) rotate(-0.06)">CG PROSPECT</text><path class="cls-2" d="M261.61,218.57a3.18,3.18,0,0,1-3.19,3.18H124.91a100.68,100.68,0,0,1-71-29.43,99.4,99.4,0,0,1-30-71.17A105.45,105.45,0,0,1,53,47.91c18.74-19.63,43.29-30.46,69.14-30.48H516.64V27H122.12C98.9,27,76.8,36.77,59.88,54.5a95.93,95.93,0,0,0-26.51,66.65c0,49.35,41.92,91,91.54,91H258.42a3.19,3.19,0,0,1,3.19,3.18Z"/><path class="cls-2" d="M493.1,43l-.89-1.32a3.18,3.18,0,0,1,.86-4.42L515.4,22.2,493.07,7.14a3.18,3.18,0,0,1-.86-4.42l.89-1.32a3.19,3.19,0,0,1,4.42-.86l31.14,21a.79.79,0,0,1,0,1.31l-31.14,21A3.18,3.18,0,0,1,493.1,43Z"/></svg>