<svg xmlns="http://www.w3.org/2000/svg" viewBox="0 0 252.62 235.22"><defs><style>.cls-1{font-size:139.43px;fill:#fff;font-family:Tahoma-Bold, Tahoma;font-weight:700;}.cls-2{fill:#fee648;stroke:#fee648;stroke-miterlimit:10;stroke-width:5px;}</style></defs><g id="Livello_2" data-name="Livello 2"><g id="Livello_1-2" data-name="Livello 1"><text class="cls-1" transform="translate(73.61 176.81) rotate(-0.06)">P</text><path class="cls-2" d="M151.83,222.16a3.19,3.19,0,0,1-3.18,3.18H103.58a100.74,100.74,0,0,1-71-29.43,99.4,99.4,0,0,1-30-71.17A105.36,105.36,0,0,1,31.65,51.5C50.38,31.87,74.94,21,100.79,21H230.17v9.55H100.79c-23.21,0-45.32,9.8-62.23,27.53a95.88,95.88,0,0,0-26.51,66.65c0,49.35,41.92,91,91.53,91.05h45.07a3.18,3.18,0,0,1,3.18,3.18Z"/><path class="cls-2" d="M214.21,45.5l-.89-1.32a3.19,3.19,0,0,1,.86-4.42L236.51,24.7,214.18,9.64a3.19,3.19,0,0,1-.86-4.42l.89-1.32A3.19,3.19,0,0,1,218.63,3l31.14,21a.78.78,0,0,1,0,1.31l-31.14,21A3.19,3.19,0,0,1,214.21,45.5Z"/></g></g></svg>