<svg xmlns="http://www.w3.org/2000/svg" viewBox="0 0 1040.9 232.81"><defs><style>.cls-1{font-size:139.43px;fill:#fff;font-family:Tahoma-Bold, Tahoma;font-weight:700;}.cls-2{fill:#fee648;stroke:#fee648;stroke-miterlimit:10;stroke-width:5px;}</style></defs><g id="Livello_2" data-name="Livello 2"><g id="Livello_1-2" data-name="Livello 1"><text class="cls-1" transform="translate(58.57 174.39) rotate(-0.06)">CG PROSPECT</text><path class="cls-2" d="M240.28,221.19a3.18,3.18,0,0,1-3.18,3.18H103.58a100.65,100.65,0,0,1-71-29.43,99.39,99.39,0,0,1-30-71.16A105.38,105.38,0,0,1,31.65,50.53C50.38,30.9,74.94,20.08,100.79,20.05H495.32V29.6H100.79c-23.21,0-45.32,9.8-62.23,27.52a95.88,95.88,0,0,0-26.51,66.65c0,49.35,41.92,91.05,91.53,91.05H237.1a3.18,3.18,0,0,1,3.18,3.19Z"/><path class="cls-2" d="M479.09,45.5l-.89-1.32a3.18,3.18,0,0,1,.86-4.42L501.39,24.7,479.06,9.64a3.18,3.18,0,0,1-.86-4.42l.89-1.32A3.19,3.19,0,0,1,483.51,3l31.14,21a.78.78,0,0,1,0,1.31l-31.14,21A3.18,3.18,0,0,1,479.09,45.5Z"/></g></g></svg>