<svg xmlns="http://www.w3.org/2000/svg" width="83.416" height="83.415" viewBox="0 0 83.416 83.415">
  <g id="ico_layers" transform="translate(0 0)">
    <path id="Tracciato_20" data-name="Tracciato 20" d="M82.291,205.829,43.027,181.391a2.422,2.422,0,0,0-2.64,0L1.124,205.829a2.436,2.436,0,0,0,0,4.1l39.264,24.6a2.422,2.422,0,0,0,2.64,0l39.264-24.6a2.436,2.436,0,0,0,0-4.1Z" transform="translate(0 -151.511)" fill="#9b9b9b"/>
    <path id="Tracciato_21" data-name="Tracciato 21" d="M297.708,207.882a2.465,2.465,0,0,1-1.124,2.053l-39.264,24.6a2.736,2.736,0,0,1-1.32.391V181a2.3,2.3,0,0,1,1.32.391l39.264,24.438A2.465,2.465,0,0,1,297.708,207.882Z" transform="translate(-214.292 -151.511)" fill="#727272"/>
    <path id="Tracciato_22" data-name="Tracciato 22" d="M82.291,115.829,43.027,91.391a2.422,2.422,0,0,0-2.64,0L1.124,115.829a2.436,2.436,0,0,0,0,4.1l39.264,24.438a2.422,2.422,0,0,0,2.64,0l39.264-24.438a2.436,2.436,0,0,0,0-4.105Z" transform="translate(0 -76.174)" fill="#7986e8"/>
    <path id="Tracciato_23" data-name="Tracciato 23" d="M297.708,117.882a2.465,2.465,0,0,1-1.124,2.053L257.32,144.372a2.736,2.736,0,0,1-1.32.391V91a2.3,2.3,0,0,1,1.32.391l39.264,24.438A2.465,2.465,0,0,1,297.708,117.882Z" transform="translate(-214.292 -76.174)" fill="#5a65e3"/>
    <path id="Tracciato_24" data-name="Tracciato 24" d="M82.291,24.992,43.027.391a2.422,2.422,0,0,0-2.64,0L1.124,24.992a2.436,2.436,0,0,0,0,4.1L40.388,53.535a2.422,2.422,0,0,0,2.64,0L82.291,29.1a2.436,2.436,0,0,0,0-4.1Z" fill="#ffaf49"/>
    <path id="Tracciato_25" data-name="Tracciato 25" d="M297.708,27.045a2.465,2.465,0,0,1-1.124,2.053L257.32,53.535a2.736,2.736,0,0,1-1.32.391V0a2.3,2.3,0,0,1,1.32.391l39.264,24.6a2.465,2.465,0,0,1,1.124,2.054Z" transform="translate(-214.292)" fill="#ff982b"/>
  </g>
</svg>
