<svg xmlns="http://www.w3.org/2000/svg" viewBox="0 0 512 470.79"><defs><style>.cls-1{fill:#fee648;}.cls-2{fill:#e7a532;}.cls-3{fill:#146699;}.cls-4{fill:#e5e5e5;}.cls-5{fill:#f1d333;}</style></defs><g id="Livello_2" data-name="Livello 2"><g id="Livello_2-2" data-name="Livello 2"><path class="cls-1" d="M393.69,282.19V155.47a2.82,2.82,0,0,1,4.81-2l38.34,38.34a2.82,2.82,0,0,0,4,0l70.34-70.35a2.82,2.82,0,0,0,0-4L426.35,32.66A111.5,111.5,0,0,0,347.51,0h-183A111.5,111.5,0,0,0,85.65,32.66L.83,117.48a2.81,2.81,0,0,0,0,4l70.34,70.35a2.82,2.82,0,0,0,4,0l38.33-38.34a2.82,2.82,0,0,1,4.82,2V282.19L281.17,436.25h45.06Z"/><path class="cls-2" d="M376.12,151.69a13.85,13.85,0,0,0-23.64,9.79V312.9l41.21-30.71V169.27Z"/><path class="cls-2" d="M511.17,117.48,426.35,32.66a111.56,111.56,0,0,0-50.66-29,112.25,112.25,0,0,1,9.45,8.43l45.3,45.3a58.73,58.73,0,0,1,0,83.05l-22.51,22.5,28.91,28.91a2.81,2.81,0,0,0,4,0l70.34-70.34a2.82,2.82,0,0,0,0-4Z"/><path class="cls-2" d="M264.09,415.35,249.89,425A18.3,18.3,0,0,1,256,436.25h99.44L331.16,380A95.86,95.86,0,0,1,264.09,415.35Z"/><path class="cls-3" d="M163,282.19l-44.73,7.59V270a13.56,13.56,0,0,1,13.55-13.56h17.63A13.56,13.56,0,0,1,163,270v12.22Z"/><path class="cls-1" d="M275.06,425,245.91,399.3l-27.47-12.53c-55.3,8.62-99.93,12.86-155.24,4.23l-27.76,8.3L6.29,425a18.58,18.58,0,0,0,8.31,32.07,587.79,587.79,0,0,0,252.15,0A18.58,18.58,0,0,0,275.06,425Z"/><path class="cls-2" d="M275.06,425,245.91,399.3l-11.76-5.39-3.44,7.76,3.14,2.77a18.58,18.58,0,0,1-8.31,32.07A587.83,587.83,0,0,1,.22,441.75,18.44,18.44,0,0,0,14.6,457.11a587.79,587.79,0,0,0,252.15,0A18.58,18.58,0,0,0,275.06,425Z"/><path class="cls-4" d="M345.18,0H166.82A89.29,89.29,0,0,0,256,89.18,89.29,89.29,0,0,0,345.18,0Z"/><path class="cls-1" d="M319.42,0A63.42,63.42,0,0,1,192.58,0Z"/><path class="cls-3" d="M264.22,136.93l10.47,32.24a4.48,4.48,0,0,0,4.26,3.09h33.89a8.64,8.64,0,0,1,5.08,15.64L290.5,207.82a4.47,4.47,0,0,0-1.62,5l10.47,32.24a8.64,8.64,0,0,1-13.3,9.66L258.63,234.8a4.47,4.47,0,0,0-5.26,0L226,254.72a8.64,8.64,0,0,1-13.3-9.66l10.47-32.24a4.47,4.47,0,0,0-1.62-5l-27.43-19.93a8.64,8.64,0,0,1,5.08-15.63h33.9a4.46,4.46,0,0,0,4.25-3.09l10.48-32.24a8.64,8.64,0,0,1,16.44,0Z"/><path class="cls-2" d="M118.31,70.43a7.73,7.73,0,0,0-15.45,0v93.68l10.64-10.63a2.82,2.82,0,0,1,4.81,2Z"/><path class="cls-2" d="M409.14,70.43a7.73,7.73,0,0,0-15.45,0v85a2.82,2.82,0,0,1,4.81-2l10.64,10.64V70.43Z"/><path class="cls-4" d="M459,291a7.73,7.73,0,0,1-7.72-7.73v-6a37.8,37.8,0,0,0-75.6,0v6a7.73,7.73,0,1,1-15.45,0v-6a53.25,53.25,0,0,1,106.5,0v6A7.73,7.73,0,0,1,459,291Z"/><path class="cls-1" d="M245.91,399.3l-21.78,3.39a541.88,541.88,0,0,1-166.91,0L35.44,399.3V350.73A68.54,68.54,0,0,1,104,282.19h73.39a68.54,68.54,0,0,1,68.54,68.54Z"/><path class="cls-2" d="M185.63,282.69a68.31,68.31,0,0,1,19.07,47.44v26.52a25.75,25.75,0,0,1-21.77,25.44,542.16,542.16,0,0,1-147.49,2.67V399.3l21.78,3.39a541.88,541.88,0,0,0,166.91,0l21.78-3.39V350.73a68.55,68.55,0,0,0-60.28-68.05Z"/><path class="cls-3" d="M145.56,311.49l6.21,19.14a2.66,2.66,0,0,0,2.53,1.84h20.12a5.13,5.13,0,0,1,3,9.28l-16.28,11.83a2.65,2.65,0,0,0-1,3l6.22,19.14a5.13,5.13,0,0,1-7.89,5.74l-16.28-11.83a2.64,2.64,0,0,0-3.12,0l-16.28,11.83a5.13,5.13,0,0,1-7.9-5.74l6.22-19.14a2.65,2.65,0,0,0-1-3l-16.29-11.83a5.13,5.13,0,0,1,3-9.28h20.12a2.66,2.66,0,0,0,2.53-1.84l6.22-19.14a5.13,5.13,0,0,1,9.76,0Z"/><path class="cls-4" d="M208.3,291.71c11.34,15.39,17.58,35.73,17.58,57.27v53.44l-1.75.27q-6.84,1.06-13.71,2V349c0-36.82-21.13-66.78-47.11-66.79h14.06a68.11,68.11,0,0,1,28.24,6.08Q207,289.92,208.3,291.71ZM104,282.19a68.11,68.11,0,0,0-28.24,6.08q-1.38,1.65-2.69,3.44C61.72,307.1,55.48,327.44,55.48,349v53.44l1.74.27q6.84,1.06,13.71,2V349c0-36.82,21.13-66.78,47.12-66.79Z"/><path class="cls-4" d="M205.62,288.27a68,68,0,0,0-20-5.58,68.46,68.46,0,0,1,16.3,28.08A86.76,86.76,0,0,1,210.42,349v55.67q6.87-.88,13.71-2l1.75-.27V349c0-21.54-6.24-41.88-17.57-57.27q-1.32-1.79-2.69-3.44Z"/><path class="cls-4" d="M70.93,404.65V387.8c-5.15-.27-10.31-.61-15.45-1v15.65l1.74.27Q64.06,403.76,70.93,404.65Z"/><path class="cls-1" d="M498.87,467.53H328a4.16,4.16,0,0,1-4.14-4.52l15.49-177a4.16,4.16,0,0,1,4.14-3.79H483.38a4.16,4.16,0,0,1,4.14,3.79L503,463a4.16,4.16,0,0,1-4.14,4.52Z"/><path class="cls-2" d="M503,463,487.52,286a4.16,4.16,0,0,0-4.14-3.8h-35.6l10.84,123.87a37.59,37.59,0,0,1-37.45,40.87H325.3L323.89,463a4.16,4.16,0,0,0,4.14,4.52H498.87A4.16,4.16,0,0,0,503,463Z"/><path class="cls-3" d="M418.89,333l6.94,21.34a3,3,0,0,0,2.81,2.05h22.44a5.72,5.72,0,0,1,3.37,10.35l-18.16,13.19a3,3,0,0,0-1.07,3.31l6.93,21.34a5.72,5.72,0,0,1-8.8,6.4l-18.16-13.19a2.94,2.94,0,0,0-3.48,0L393.55,411a5.72,5.72,0,0,1-8.8-6.4l6.93-21.34a3,3,0,0,0-1.07-3.31l-18.16-13.19a5.72,5.72,0,0,1,3.37-10.35h22.44a3,3,0,0,0,2.81-2.05L408,333a5.72,5.72,0,0,1,10.88,0Z"/><path class="cls-5" d="M455.13,366.16a5.76,5.76,0,0,0-.77-8.77Z"/></g></g></svg>