<svg xmlns="http://www.w3.org/2000/svg" viewBox="0 0 124.05 124.04"><defs><style>.cls-1{fill:#b0b5ca;}.cls-2{fill:#e5e5e5;}.cls-3{fill:#146699;}.cls-4{fill:#fee648;}.cls-5{fill:#ccd3df;}.cls-6{fill:#e7a532;}.cls-7{fill:#6d7486;}</style></defs><g id="Livello_2" data-name="Livello 2"><g id="Livello_2-2" data-name="Livello 2"><path class="cls-1" d="M121.2,107.46,53,39.28A27.77,27.77,0,0,0,19,1.43L30.2,12.69,27.29,27.18l-15,2.65L1.46,18.9h0A27.76,27.76,0,0,0,39.28,53l68.19,68.18a9.71,9.71,0,0,0,13.73-13.73Z"/><path class="cls-2" d="M122.29,6.52l-8.37,14.31-7.37,2.62L77.84,52.16l-.45.45-5.94-6,.45-.45L100.6,17.5l2.62-7.37,14.32-8.37Z"/><path class="cls-3" d="M61.8,51.48,69,44.26,79.78,55l-7.22,7.23Z"/><path class="cls-4" d="M54.49,56l-15.4,8.42L4.8,98.76a10.35,10.35,0,0,0,0,14.64h0l5.85,5.86a10.34,10.34,0,0,0,14.63,0h0L59.59,85,68,69.56Z"/><path class="cls-5" d="M13.2,50.67a27.74,27.74,0,0,1-7.1-27.1L1.46,18.9h0A27.77,27.77,0,0,0,15.29,52.55a26.27,26.27,0,0,1-2.09-1.88Z"/><path class="cls-6" d="M9.86,116.69a10.34,10.34,0,0,1,0-14.63h0l34.3-34.3L58.41,60,54.49,56l-15.4,8.42L4.8,98.76a10.35,10.35,0,0,0,0,14.64h0l5.85,5.86a10.31,10.31,0,0,0,4.38,2.6Z"/><path class="cls-6" d="M21,111.16a1.52,1.52,0,0,1-1.52-1.52,1.49,1.49,0,0,1,.45-1.07L44.14,84.3a1.52,1.52,0,1,1,2.15,2.15L22,110.71a1.53,1.53,0,0,1-1.08.45Z"/><path class="cls-6" d="M14.41,104.62a1.52,1.52,0,0,1-1.52-1.52,1.49,1.49,0,0,1,.45-1.07L37.6,77.76a1.52,1.52,0,0,1,2.15,2.15L15.49,104.17a1.53,1.53,0,0,1-1.08.45Z"/><path class="cls-7" d="M105.34,106.81a1.52,1.52,0,0,1-1.07-.44L70.92,73a1.52,1.52,0,0,1,2.15-2.15l33.35,33.35a1.53,1.53,0,0,1,0,2.15A1.55,1.55,0,0,1,105.34,106.81Z"/><path class="cls-7" d="M52.21,53.68a1.54,1.54,0,0,1-1.07-.44L47,49.05A1.52,1.52,0,0,1,49.1,46.9l4.19,4.19a1.53,1.53,0,0,1,0,2.15,1.55,1.55,0,0,1-1.08.44Z"/><path class="cls-7" d="M47.17,32.58h-.11a1.51,1.51,0,0,1-1.4-1.63,20.47,20.47,0,0,0-1-8,1.52,1.52,0,0,1,2.88-1,23.52,23.52,0,0,1,1.12,9.2,1.52,1.52,0,0,1-1.52,1.4Z"/><path class="cls-7" d="M43.72,19a1.52,1.52,0,0,1-1.27-.69c-.39-.6-.81-1.18-1.25-1.73a1.52,1.52,0,0,1,2.36-1.91q.77,1,1.44,2A1.53,1.53,0,0,1,43.72,19Z"/><path class="cls-6" d="M74.63,64.29,59.76,49.42a4.2,4.2,0,0,0-5.94,5.95L68.68,70.23a4.2,4.2,0,0,0,5.95-5.94Z"/></g></g></svg>