<svg id="solution" xmlns="http://www.w3.org/2000/svg" width="26.874" height="26.874" viewBox="0 0 26.874 26.874">
  <path id="Tracciato_33" data-name="Tracciato 33" d="M30.935,27.468a3.468,3.468,0,1,0-3.468,3.468A3.472,3.472,0,0,0,30.935,27.468Zm-3.468,2.6a2.6,2.6,0,1,1,2.6-2.6A2.6,2.6,0,0,1,27.468,30.068Z" transform="translate(-14.031 -14.031)" fill="#fff"/>
  <path id="Tracciato_34" data-name="Tracciato 34" d="M26.13,14.046a11.622,11.622,0,0,0-.857-4.033V8.892a.846.846,0,0,1,.373-.71,3.9,3.9,0,0,0-2.56-7.156,3.927,3.927,0,0,0-3.344,2.982A11.707,11.707,0,0,0,10.536,3.4V1h-2.6V7.935H7.068v-5.2h-2.6v5.2H3.6V4.468H1V8.8H4.18a11.669,11.669,0,0,0-.772,9.536,1.716,1.716,0,0,0-.241.867H2.3a1.3,1.3,0,0,0-1.3,1.3v2.167h.867a.867.867,0,0,1,0,1.734H1v2.167a1.3,1.3,0,0,0,1.3,1.3H7.5a1.3,1.3,0,0,0,1.3-1.3V24.406H7.935a.867.867,0,0,1,0-1.734H8.8V20.505a1.3,1.3,0,0,0-1.3-1.3H6.635A1.736,1.736,0,0,0,4.9,17.471a1.71,1.71,0,0,0-.8.2,10.774,10.774,0,0,1-.484-2.8H8.8v1.174l.791.28q.04.1.085.2l-.362.758,2.273,2.273.758-.362c.068.03.136.059.2.085l.279.791H14v5.19a10.722,10.722,0,0,1-4.136-1l-.366.786A11.708,11.708,0,0,0,23.539,21.79v3.152l1.152,2.3a1.135,1.135,0,0,0,2.03,0l1.152-2.3V16.171a2.17,2.17,0,0,0-1.743-2.124ZM2.734,7.935H1.867v-2.6h.867ZM20.531,4.5a3.046,3.046,0,0,1,2.653-2.613,3.238,3.238,0,0,1,.359-.02,3,3,0,0,1,2.016.771,3.032,3.032,0,0,1-.382,4.815A1.692,1.692,0,0,0,24.412,8.8h-.439V6.122a1.3,1.3,0,1,0-.867,0V8.8h-.44a1.689,1.689,0,0,0-.758-1.345A3.022,3.022,0,0,1,20.531,4.5Zm3.875,5.169V10.1a.434.434,0,0,1-.433.433h-.867a.434.434,0,0,1-.433-.433V9.669ZM23.106,4.9a.433.433,0,1,1,.433.433A.434.434,0,0,1,23.106,4.9ZM14.87,3.615a10.824,10.824,0,0,1,4.769,1.32,3.872,3.872,0,0,0,1.8,3.253.851.851,0,0,1,.364.723V10.1a1.3,1.3,0,0,0,1.3,1.3h.867a1.287,1.287,0,0,0,.785-.27,10.764,10.764,0,0,1,.5,2.871H20.072V12.83l-.791-.28q-.04-.1-.085-.2l.362-.758L17.285,9.315l-.758.362c-.068-.03-.136-.059-.2-.085L16.044,8.8H14.87ZM8.8,1.867h.867V7.935H8.8ZM5.334,3.6H6.2V7.935H5.334Zm-1.3,16.471V19.2a.867.867,0,0,1,1.734,0v.867H7.5a.434.434,0,0,1,.433.433v1.3a1.734,1.734,0,1,0,0,3.468v1.3a.434.434,0,0,1-.433.433H2.3a.434.434,0,0,1-.433-.433v-1.3a1.734,1.734,0,1,0,0-3.468v-1.3a.434.434,0,0,1,.433-.433ZM8.8,12.83V14H3.616a10.786,10.786,0,0,1,1.57-5.2h5.35V4.328A10.738,10.738,0,0,1,14,3.612V8.8H12.83l-.28.791q-.1.04-.2.085l-.758-.362L9.315,11.589l.362.758c-.03.068-.059.136-.085.2ZM13.443,19.2l-.213-.6-.2-.068a4.237,4.237,0,0,1-.5-.207l-.189-.092-.578.277-1.405-1.405.277-.578-.092-.189a4.313,4.313,0,0,1-.207-.5l-.068-.2-.6-.212V13.443l.6-.213.068-.2a4.238,4.238,0,0,1,.207-.5l.092-.189-.277-.578,1.405-1.405.578.277.189-.092a4.313,4.313,0,0,1,.5-.207l.2-.068.212-.6h1.987l.213.6.2.068a4.238,4.238,0,0,1,.5.207l.189.092.578-.277,1.405,1.405-.277.578.092.189a4.313,4.313,0,0,1,.207.5l.068.2.6.212v1.987l-.6.213-.068.2a4.237,4.237,0,0,1-.207.5l-.092.189.277.578-1.405,1.405-.578-.277-.189.092a4.314,4.314,0,0,1-.5.207l-.2.068-.212.6Zm10.1-3.034v4.142a10.78,10.78,0,0,1-8.669,4.946V20.072h1.174l.28-.791q.1-.04.2-.085l.758.362,2.273-2.273-.362-.758c.03-.068.059-.136.085-.2l.791-.279V14.87h3.912a2.145,2.145,0,0,0-.445,1.3Zm.867,1.3h.867v6.935h-.867Zm1.54,9.388a.278.278,0,0,1-.479,0l-.793-1.586h2.065Zm1.061-2.453H26.14V17.471h.867Zm0-7.8h-2.6v-.433a1.3,1.3,0,1,1,2.6,0Z" transform="translate(-1 -1)" fill="#fff"/>
  <path id="Tracciato_35" data-name="Tracciato 35" d="M34.981,49.99a9.983,9.983,0,0,0,5.933-3.08l-.634-.591a9.114,9.114,0,0,1-5.417,2.812Z" transform="translate(-20.186 -26.676)" fill="#fff"/>
  <path id="Tracciato_36" data-name="Tracciato 36" d="M50.234,42.933l-.75-.433a9.16,9.16,0,0,1-.541.828l.7.513A10.013,10.013,0,0,0,50.234,42.933Z" transform="translate(-28.162 -24.512)" fill="#fff"/>
</svg>
