<svg xmlns="http://www.w3.org/2000/svg" viewBox="0 0 60.54 60.3"><defs><style>.cls-1{fill:#ebebeb;}.cls-2{fill:#ddd3ce;}.cls-3{fill:#fee648;}.cls-4{fill:#e7a532;}.cls-5{fill:#9e9e9e;}</style></defs><g id="Livello_2" data-name="Livello 2"><g id="Livello_1-2" data-name="Livello 1"><path class="cls-1" d="M25.21,57.18a3.12,3.12,0,0,0,3.12,3.12h4.16a3.11,3.11,0,0,0,3.11-3.12V51H25.21Z"/><path class="cls-2" d="M20.32,39.68a18.21,18.21,0,0,1-2.56-2,5.19,5.19,0,1,1-5-6.49c.16,0,.31,0,.47,0a18.58,18.58,0,0,1-1.5-7.32H10.39l-.72,3.42A1,1,0,0,1,9,28.1a1,1,0,0,1-1-.11L5.2,26,2.08,29.13l2,2.87a1,1,0,0,1,.11,1,1.05,1.05,0,0,1-.75.64L0,34.32v4.16l3.41.72a1.06,1.06,0,0,1,.76.63,1.1,1.1,0,0,1-.11,1l-2,2.87L5.2,46.79l2.87-2a1,1,0,0,1,1.6.64l.72,3.41h4.16l.71-3.41a1.07,1.07,0,0,1,.64-.76,1,1,0,0,1,1,.11l2.87,2L23,43.53A6.12,6.12,0,0,0,20.32,39.68Z"/><path class="cls-3" d="M49.11,23.93A18.7,18.7,0,1,0,20.32,39.68a6,6,0,0,1,2.81,5v4.2A3.12,3.12,0,0,0,26.25,52h8.31a3.12,3.12,0,0,0,3.12-3.12V44.76a6.15,6.15,0,0,1,2.88-5.12A18.67,18.67,0,0,0,49.11,23.93Z"/><path class="cls-4" d="M55.55,12.94l3.26-2.45-3.74-5L51.81,8A2.08,2.08,0,0,1,48.5,6l.58-4-6.17-.88-.58,4a2.08,2.08,0,0,1-3.72,1L36.16,2.8l-5,3.74,2.45,3.27a2.07,2.07,0,0,1-1.95,3.3l-4.05-.58-.88,6.18,4,.57a2.08,2.08,0,0,1,1,3.72l-3.27,2.45,3.74,5L35.48,28a2.08,2.08,0,0,1,3.3,2l-.58,4,6.17.88.59-4a2.07,2.07,0,0,1,3.71-.95l2.46,3.26,5-3.74-2.45-3.26a2.08,2.08,0,0,1,2-3.31l4,.58.88-6.17-4-.58a2.08,2.08,0,0,1-1-3.72ZM43.64,25.25A7.28,7.28,0,1,1,50.92,18,7.28,7.28,0,0,1,43.64,25.25Z"/><path class="cls-5" d="M25.21,54.07H35.6v2.08H25.21Z"/><path class="cls-4" d="M29.37,45.75h2.08v3.12H29.37Z"/><path class="cls-4" d="M31.45,43.68H29.37a6.65,6.65,0,0,0-4.26-6.2,14.55,14.55,0,0,1-2.46-25.86l1.11,1.76a12.47,12.47,0,0,0,2.1,22.17A8.7,8.7,0,0,1,31.45,43.68Z"/><path class="cls-3" d="M51.19,38.48h5.2a1,1,0,0,1,0,2.08h-5.2a1,1,0,0,1,0-2.08Z"/><path class="cls-3" d="M49.11,44.72a1.05,1.05,0,0,1,1.47-.14l4.63,3.87A1,1,0,1,1,53.88,50l-4.64-3.86A1,1,0,0,1,49.11,44.72Z"/><path class="cls-3" d="M45,46.79a1,1,0,0,1,1,1V53a1,1,0,1,1-2.07,0v-5.2A1,1,0,0,1,45,46.79Z"/><path class="cls-3" d="M1,17.48l6.3-1.58a1,1,0,0,1,.5,2l-6.3,1.57a1,1,0,1,1-.5-2Z"/><path class="cls-3" d="M2.35,6.27A1,1,0,0,1,3.8,6l5.58,4a1,1,0,0,1,.24,1.44,1,1,0,0,1-1.44.25l-5.59-4A1,1,0,0,1,2.35,6.27Z"/><path class="cls-3" d="M11.66,0a1,1,0,0,1,1.26.75l1.61,6.3a1,1,0,1,1-2,.52L10.91,1.3A1,1,0,0,1,11.66,0Z"/></g></g></svg>