<svg xmlns="http://www.w3.org/2000/svg" viewBox="0 0 512 512"><defs><style>.cls-1{fill:#fee648;}.cls-2{fill:#fff;}</style></defs><g id="Livello_2" data-name="Livello 2"><g id="Livello_2-2" data-name="Livello 2"><path class="cls-1" d="M460.88,113l-25.23,34.78,23.87,57.57L502,212.07l0,87.68-42.42,6.75-23.84,57.61L461,398.86l-62,62-34.78-25.23-57.57,23.87L299.93,502l-87.68,0-6.75-42.42-57.6-23.84L113.14,461l-62-62,25.23-34.78L52.48,306.66,10,299.94l0-87.69,42.42-6.75,23.84-57.6L51,113.14l62-62,34.78,25.23,57.57-23.87L212.07,10l87.68,0,6.75,42.42,57.61,23.84L398.86,51Z"/><circle class="cls-2" cx="256" cy="256" r="152"/><path class="cls-1" d="M171.63,236.14a45.77,45.77,0,0,0,42.48,10.22l51.51,51.51A45.65,45.65,0,0,0,326.84,352L312.4,337.58a17.87,17.87,0,0,1,0-25.27h0a17.88,17.88,0,0,1,25.28,0l14.4,14.4a45.61,45.61,0,0,0-54.14-61.08L246.4,214.09a45.66,45.66,0,0,0-61.1-54.16l14.5,14.5a17.88,17.88,0,0,1,0,25.28h0a17.87,17.87,0,0,1-25.27,0L160,185.16A45.63,45.63,0,0,0,171.63,236.14Z"/><path d="M155.58,356.39a10,10,0,1,0-14.11,14.18l.32.32a10,10,0,1,0,14.08-14.2Z"/><path d="M141.45,141.45a162.22,162.22,0,0,0-25.92,195.33,10,10,0,0,0,17.33-10,142.21,142.21,0,0,1,22.73-171.21c55.37-55.36,145.45-55.36,200.82,0s55.37,145.45,0,200.82a142,142,0,0,1-171.92,22.31A10,10,0,0,0,174.41,396a162,162,0,0,0,196.14-25.45c63.17-63.16,63.17-165.94,0-229.1S204.61,78.29,141.45,141.45Z"/><path d="M512,212.06a10,10,0,0,0-8.44-9.87l-36.91-5.85L447,149.11l22-30.25a10,10,0,0,0-1-13l-62-62a10,10,0,0,0-12.95-1l-30.22,22L315.5,45.32,309.62,8.43A10,10,0,0,0,299.75,0h0L212.06,0a10,10,0,0,0-9.87,8.43l-5.85,36.91L149.11,65,118.86,43a10,10,0,0,0-12.94,1l-62,62a10,10,0,0,0-1,13l22,30.22L45.32,196.5,8.43,202.38A10,10,0,0,0,0,212.25l0,87.69a10,10,0,0,0,8.43,9.87l36.91,5.85L65,362.89,43,393.14a10,10,0,0,0,1,12.94l62,62a10,10,0,0,0,13,1l30.22-22,47.26,19.56,5.88,36.89a10,10,0,0,0,9.87,8.43h0l87.69,0a10,10,0,0,0,9.87-8.43l5.85-36.91L362.89,447l30.25,22a10,10,0,0,0,12.94-1l62-62a10,10,0,0,0,1-12.95l-22-30.22,19.56-47.26,36.89-5.88a10,10,0,0,0,8.43-9.88Zm-54,84.57a10,10,0,0,0-7.67,6.05l-23.84,57.6a10,10,0,0,0,1.15,9.7l20.23,27.85L398,447.77,370.1,427.56a10,10,0,0,0-9.7-1.15l-57.57,23.88a10,10,0,0,0-6.05,7.67l-5.39,34-70.6,0-5.42-34a10,10,0,0,0-6.05-7.67l-57.6-23.84a10,10,0,0,0-9.7,1.15l-27.85,20.23L64.23,398,84.44,370.1a10,10,0,0,0,1.15-9.7L61.72,302.83A10,10,0,0,0,54,296.78l-34-5.39,0-70.6,34-5.42a10,10,0,0,0,7.67-6.05l23.84-57.6a10,10,0,0,0-1.15-9.7L64.12,114.17,114,64.23,141.9,84.44a10,10,0,0,0,9.71,1.15l57.56-23.88A10,10,0,0,0,215.22,54l5.39-34,70.61,0,5.41,34a10,10,0,0,0,6.05,7.67l57.6,23.84a10,10,0,0,0,9.7-1.15l27.85-20.23L447.77,114,427.56,141.9a10,10,0,0,0-1.14,9.7l23.87,57.57a10,10,0,0,0,7.67,6.05l34,5.39,0,70.6Z"/><path d="M210.85,257.25l43.88,43.88a55.63,55.63,0,0,0,75.85,60.16,10,10,0,0,0,3.32-16.35l-14.43-14.43a7.87,7.87,0,0,1,11.13-11.13L345,333.78a10,10,0,0,0,16.35-3.35,55.94,55.94,0,0,0-14.26-62,55.37,55.37,0,0,0-45.91-13.72l-43.91-43.92a55.64,55.64,0,0,0-75.7-60.17A10,10,0,0,0,178.23,167l14.5,14.5a7.87,7.87,0,0,1-11.13,11.13l-14.55-14.55a10,10,0,0,0-16.34,3.32,55.92,55.92,0,0,0,14.19,62.14A55.35,55.35,0,0,0,210.85,257.25Zm-44-51.05.57.58a27.87,27.87,0,0,0,39.42-39.42l-.47-.47a35.66,35.66,0,0,1,30.33,44.62,10,10,0,0,0,2.59,9.65l51.55,51.54a10,10,0,0,0,9.62,2.6,35.52,35.52,0,0,1,44.6,30.28l-.34-.35a27.87,27.87,0,1,0-39.42,39.42l.49.49a35.67,35.67,0,0,1-30.54-44.69,10,10,0,0,0-2.59-9.65l-51.51-51.51a10,10,0,0,0-7.08-2.93,9.79,9.79,0,0,0-2.56.34,35.54,35.54,0,0,1-44.66-30.5Z"/><path d="M281.55,142.89a10,10,0,0,0-4.39,19.51,96.22,96.22,0,0,1,54.44,34.52,10,10,0,1,0,15.74-12.33A116.24,116.24,0,0,0,281.55,142.89Z"/><path d="M347.4,226.74a10,10,0,0,0,9.52,7,10.16,10.16,0,0,0,3.05-.48,10,10,0,0,0,6.48-12.57l-.15-.45a10,10,0,1,0-19,6.14Z"/></g></g></svg>