<svg id="calendar" xmlns="http://www.w3.org/2000/svg" width="27.22" height="27.22" viewBox="0 0 27.22 27.22">
  <path id="Tracciato_7" data-name="Tracciato 7" d="M23.711,2.127H21.266V.851a.851.851,0,1,0-1.7,0V2.127H7.656V.851a.851.851,0,0,0-1.7,0V2.127H3.509A3.513,3.513,0,0,0,0,5.635V23.711A3.513,3.513,0,0,0,3.509,27.22h20.2a3.513,3.513,0,0,0,3.509-3.509V5.635A3.513,3.513,0,0,0,23.711,2.127Zm-20.2,1.7H5.954v.851a.851.851,0,0,0,1.7,0V3.828H19.565v.851a.851.851,0,1,0,1.7,0V3.828h2.446a1.81,1.81,0,0,1,1.808,1.808v2.02H1.7V5.635A1.81,1.81,0,0,1,3.509,3.828Zm20.2,21.691H3.509A1.81,1.81,0,0,1,1.7,23.711V9.357H25.519V23.711A1.81,1.81,0,0,1,23.711,25.519Z" fill="#fff"/>
</svg>
