<svg xmlns="http://www.w3.org/2000/svg" viewBox="0 0 66.5 66.5"><defs><style>.cls-1{fill:#fee648;}.cls-2{fill:#e7a532;}.cls-3{fill:#ebebeb;}.cls-4{fill:#ddd3ce;}</style></defs><g id="Livello_2" data-name="Livello 2"><g id="Livello_1-2" data-name="Livello 1"><path class="cls-1" d="M0,11.87H3.9V19H0Z"/><path class="cls-1" d="M0,23.73H3.9V30.9H0Z"/><path class="cls-1" d="M47.47,0h7.17V3.9H47.47Z"/><path class="cls-1" d="M35.6,0h7.17V3.9H35.6Z"/><path class="cls-1" d="M23.73,0H30.9V3.9H23.73Z"/><path class="cls-1" d="M11.87,0H19V3.9H11.87Z"/><path class="cls-1" d="M0,0V7.17H3.9V3.9H7.17V0Z"/><path class="cls-1" d="M59.33,0V3.9h3.28V7.17H66.5V0Z"/><path class="cls-2" d="M62.61,3.9V7.17H66.5V0Z"/><path class="cls-1" d="M62.61,11.87H66.5V19H62.61Z"/><path class="cls-1" d="M62.61,23.73H66.5V30.9H62.61Z"/><path class="cls-1" d="M62.61,35.6H66.5v7.17H62.61Z"/><path class="cls-1" d="M62.61,47.47H66.5v7.17H62.61Z"/><path class="cls-1" d="M62.61,62.61H59.33V66.5H66.5V59.33H62.61Z"/><path class="cls-1" d="M47.47,62.61h7.17V66.5H47.47Z"/><path class="cls-1" d="M35.6,62.61h7.17V66.5H35.6Z"/><path class="cls-1" d="M18.68,54.28,0,66.5V35.6H30.9Z"/><path class="cls-2" d="M30.9,66.5H0L30.9,35.6Z"/><path class="cls-3" d="M46.76,11.16v3.9h1.93L38.23,25.52V23.58h-3.9v8.59h8.59v-3.9H41L51.44,17.81v1.94h3.9V11.16Z"/><path class="cls-4" d="M34.33,32.17h8.59v-3.9H41L51.44,17.81v1.94h3.9V11.16Z"/></g></g></svg>