<svg xmlns="http://www.w3.org/2000/svg" viewBox="0 0 416 464"><defs><style>.cls-1{fill:#fee648;}.cls-2{fill:#e7a532;}.cls-3{fill:#e5e5e5;}.cls-4{fill:#ffb531;}</style></defs><g id="Livello_2" data-name="Livello 2"><g id="Livello_2-2" data-name="Livello 2"><path class="cls-1" d="M384,0a32,32,0,0,0-32,32V432a32,32,0,0,1-32,32H64V32A32,32,0,0,1,96,0Z"/><path class="cls-2" d="M384,0a32,32,0,0,0-32,32V432a32,32,0,0,1-32,32H64V359.31C169.88,295.6,265,183.16,328.1,0Z"/><path class="cls-3" d="M320,464H32A32,32,0,0,1,0,432V416H288v16A32,32,0,0,0,320,464Z"/><path class="cls-3" d="M416,48H352V32a32,32,0,0,1,64,0Z"/><path class="cls-4" d="M238.05,67.55c7.26-11.5-6.1-24.86-17.6-17.6-3-13.26-21.9-13.26-24.89,0-11.5-7.26-24.87,6.11-17.6,17.6-13.27,3-13.27,21.9,0,24.9-7.26,11.5,6.1,24.86,17.6,17.6,3,13.26,21.9,13.26,24.89,0,11.5,7.26,24.87-6.1,17.6-17.6C251.32,89.45,251.32,70.55,238.05,67.55Z"/><path class="cls-3" d="M168,176h80v16H168Z"/><path class="cls-3" d="M192,144h80v16H192Z"/><path class="cls-3" d="M144,144h32v16H144Z"/><path class="cls-3" d="M128,216H320v16H128Z"/><path class="cls-3" d="M96,216h16v16H96Z"/><path class="cls-3" d="M128,248H256v16H128Z"/><path class="cls-3" d="M272,248h48v16H272Z"/><path class="cls-3" d="M128,280H320v16H128Z"/><path class="cls-3" d="M96,280h16v16H96Z"/><path class="cls-3" d="M128,312h48v16H128Z"/><path class="cls-3" d="M192,312H320v16H192Z"/><path class="cls-3" d="M128,344H256v16H128Z"/><path class="cls-3" d="M96,344h16v16H96Z"/><path class="cls-3" d="M128,376H320v16H128Z"/><path class="cls-3" d="M272,344h48v16H272Z"/></g></g></svg>