<svg xmlns="http://www.w3.org/2000/svg" viewBox="0 0 45.33 38.03"><defs><style>.cls-1{fill:#fee648;}.cls-2{fill:#e7a532;}.cls-3{fill:#e5e5e5;}</style></defs><g id="Livello_2" data-name="Livello 2"><g id="Livello_1-2" data-name="Livello 1"><path class="cls-1" d="M43.94,33.16a2.46,2.46,0,1,1-3.48,3.48l-.08-.08a5.61,5.61,0,0,0-4.74-1.82,115.06,115.06,0,0,1-15.06.72h0A115.5,115.5,0,0,1,8,34.54a2.5,2.5,0,0,0-2.49,1.24,4.37,4.37,0,0,1-.64.86,2.46,2.46,0,0,1-3.48-3.48,4.07,4.07,0,0,1,.77-.58A2.47,2.47,0,0,0,3.32,30a61.38,61.38,0,0,1,0-22A2.49,2.49,0,0,0,2.16,5.45a4.07,4.07,0,0,1-.77-.58A2.46,2.46,0,0,1,4.87,1.39a4.17,4.17,0,0,1,.64.87A2.52,2.52,0,0,0,8,3.5q3.24-.42,6.48-.65a114.18,114.18,0,0,1,22.85.65,2.52,2.52,0,0,0,2.49-1.24,4.17,4.17,0,0,1,.64-.87,2.46,2.46,0,1,1,3.48,3.48,4.07,4.07,0,0,1-.77.58A2.49,2.49,0,0,0,42,8a61.38,61.38,0,0,1,0,22,2.47,2.47,0,0,0,1.16,2.58A4.07,4.07,0,0,1,43.94,33.16Z"/><path class="cls-2" d="M20.58,35.46A115.5,115.5,0,0,1,8,34.54a2.5,2.5,0,0,0-2.49,1.24,4.37,4.37,0,0,1-.64.86,2.46,2.46,0,0,1-3.48-3.48,4.07,4.07,0,0,1,.77-.58A2.47,2.47,0,0,0,3.32,30a61.38,61.38,0,0,1,0-22A2.49,2.49,0,0,0,2.16,5.45a4.07,4.07,0,0,1-.77-.58A2.46,2.46,0,0,1,4.87,1.39a4.17,4.17,0,0,1,.64.87A2.52,2.52,0,0,0,8,3.5q3.24-.42,6.48-.65C8,3.5,5.52,31.56,20.58,35.46Z"/><path class="cls-3" d="M8.12,18.78a44,44,0,0,1-1,9.49h0a20.19,20.19,0,0,1,0-19h0A44,44,0,0,1,8.12,18.78Z"/><path class="cls-2" d="M21.55,13.3a1.35,1.35,0,0,1,.82-2.42h.05c5.8,0,10.5,3.35,10.5,7.47s-4.7,7.47-10.5,7.47h-.05a1.35,1.35,0,0,1-.82-2.42,6.47,6.47,0,0,0,2.76-5A6.49,6.49,0,0,0,21.55,13.3Z"/><path d="M8.15,33.88H8.09a3.19,3.19,0,0,0-3.17,1.57,3.44,3.44,0,0,1-.52.73,1.8,1.8,0,0,1-2.53,0,1.79,1.79,0,0,1-.53-1.27,1.75,1.75,0,0,1,.53-1.26,2.8,2.8,0,0,1,.63-.48A3.17,3.17,0,0,0,4,29.88,61,61,0,0,1,4,8.16,3.18,3.18,0,0,0,2.5,4.87a3.12,3.12,0,0,1-.63-.47A1.79,1.79,0,1,1,4.4,1.87a3.35,3.35,0,0,1,.52.72A3.16,3.16,0,0,0,8.09,4.16a114.68,114.68,0,0,1,29.15,0A3.14,3.14,0,0,0,40.4,2.59a3.73,3.73,0,0,1,.53-.72A1.79,1.79,0,0,1,43.46,4.4a3.12,3.12,0,0,1-.63.47,3.18,3.18,0,0,0-1.48,3.29c.14.79.27,1.61.39,2.44a.67.67,0,0,0,.76.57.68.68,0,0,0,.57-.76c-.12-.84-.26-1.68-.4-2.49A1.8,1.8,0,0,1,43.52,6a4.81,4.81,0,0,0,.89-.68A3.13,3.13,0,1,0,40,.92a4.81,4.81,0,0,0-.74,1,1.84,1.84,0,0,1-1.83.91,115.51,115.51,0,0,0-29.49,0,1.84,1.84,0,0,1-1.83-.91,4.81,4.81,0,0,0-.74-1A3.13,3.13,0,1,0,.92,5.35,4.81,4.81,0,0,0,1.81,6a1.8,1.8,0,0,1,.85,1.89,62.26,62.26,0,0,0,0,22.2A1.82,1.82,0,0,1,1.81,32a4.33,4.33,0,0,0-.89.68A3.1,3.1,0,0,0,0,34.9a3.14,3.14,0,0,0,5.35,2.22,4.89,4.89,0,0,0,.74-1,1.84,1.84,0,0,1,1.82-.91h0a.67.67,0,0,0,.21-1.33Z"/><path d="M44.41,32.69a4.33,4.33,0,0,0-.89-.68,1.82,1.82,0,0,1-.85-1.89,62.36,62.36,0,0,0,.72-17,.68.68,0,0,0-.74-.6.66.66,0,0,0-.6.73,60.44,60.44,0,0,1-.71,16.65,3.19,3.19,0,0,0,1.49,3.28,2.8,2.8,0,0,1,.63.48A1.75,1.75,0,0,1,44,34.9a1.79,1.79,0,0,1-.53,1.27,1.8,1.8,0,0,1-2.53,0l-.06-.06a6.25,6.25,0,0,0-5.31-2,114.78,114.78,0,0,1-24.79.11.67.67,0,0,0-.74.59.68.68,0,0,0,.6.74,115.54,115.54,0,0,0,25.08-.11A5,5,0,0,1,39.89,37h0l.09.09a3.13,3.13,0,1,0,4.43-4.43Z"/><path d="M6.14,5.67a.66.66,0,0,0-.44.83c.26.89.5,1.79.7,2.7a21.28,21.28,0,0,0-2.33,9.58A21.28,21.28,0,0,0,6.4,28.36c-.2.91-.44,1.81-.7,2.69a.67.67,0,0,0,.44.84.69.69,0,0,0,.2,0A.67.67,0,0,0,7,31.44,43.59,43.59,0,0,0,8.8,18.78,43.59,43.59,0,0,0,7,6.12.67.67,0,0,0,6.14,5.67ZM5.41,18.78a19.63,19.63,0,0,1,1.44-7.31,43.88,43.88,0,0,1,.6,7.31,43.88,43.88,0,0,1-.6,7.31A19.63,19.63,0,0,1,5.41,18.78Z"/></g></g></svg>