<svg xmlns="http://www.w3.org/2000/svg" viewBox="0 0 36.08 39.23"><defs><style>.cls-1{fill:#e7a532;}.cls-2{fill:#fee648;}.cls-3{fill:#febb37;}.cls-4{fill:#4675bc;}</style></defs><g id="Livello_2" data-name="Livello 2"><g id="Livello_1-2" data-name="Livello 1"><path class="cls-1" d="M29.3,19.89H6.78l-6-3.44A.37.37,0,0,1,.62,16L5.91,5.28A.74.74,0,0,1,6.2,5L12.71.85A1.75,1.75,0,0,1,14.48.79c2.62,1.43,5,1.45,7.2.1a1.76,1.76,0,0,1,1.86,0L29.89,5a.79.79,0,0,1,.28.32L35.46,16a.36.36,0,0,1-.15.49Z"/><path class="cls-1" d="M11.61,1.55,6.2,5a.74.74,0,0,0-.29.32L.62,16a.37.37,0,0,0,.15.49l6,3.44h4.83V1.55Z"/><path class="cls-2" d="M23.54.91a1.76,1.76,0,0,0-1.86,0c-2.18,1.35-4.58,1.33-7.2-.1a1.75,1.75,0,0,0-1.77.06L6.2,5,6.84,13V38.3a.35.35,0,0,0,.34.35H28.9a.35.35,0,0,0,.35-.35V13L29.89,5Z"/><path class="cls-1" d="M23.84,34.46a13.7,13.7,0,0,1-13.7-13.7V8.85L9.66,2.78,6.2,5,6.84,13V38.65H29.25V34.46Z"/><path class="cls-3" d="M13.62.58a1.61,1.61,0,0,1,.86.21c2.62,1.43,5,1.45,7.2.1a1.67,1.67,0,0,1,.76-.25V.75a4.41,4.41,0,0,1-7.5,3,4.35,4.35,0,0,1-1.32-3Z"/><path class="cls-4" d="M23.54.91l.94.6a6.5,6.5,0,0,1-12.87,0l1.1-.7a1.78,1.78,0,0,1,.91-.27V.7A4.35,4.35,0,0,0,15,3.75a4.41,4.41,0,0,0,7.5-3V.64A1.79,1.79,0,0,1,23.54.91Z"/><path d="M36,15.7,30.69,5a1.4,1.4,0,0,0-.49-.56l-6.35-4a2.32,2.32,0,0,0-2.47,0c-2,1.25-4.19,1.21-6.62-.12A2.35,2.35,0,0,0,12.4.36l-1.09.69h0L5.89,4.47a1.42,1.42,0,0,0-.5.56L.1,15.7A1,1,0,0,0,.48,17l5.78,3.3v18a.93.93,0,0,0,.92.93H28.9a.93.93,0,0,0,.92-.93V32.12a.57.57,0,0,0-.57-.58.58.58,0,0,0-.58.58v6H7.42V13a.58.58,0,0,0-1.16,0v5.88l-5-2.87L6.43,5.54a.23.23,0,0,1,.08-.09l4.71-3a7,7,0,0,0,1.37,2.63.58.58,0,0,0,.45.21.58.58,0,0,0,.37-.13.58.58,0,0,0,.07-.82,6,6,0,0,1-1.23-2.54L13,1.34l.08,0a4.92,4.92,0,0,0,1.45,2.87A4.94,4.94,0,0,0,18,5.59a5,5,0,0,0,3.48-1.4A5,5,0,0,0,23,1.28a1.34,1.34,0,0,1,.24.12l.61.39A6,6,0,0,1,18,6.52a5.89,5.89,0,0,1-2.93-.78.59.59,0,0,0-.8.21.59.59,0,0,0,.22.79A7,7,0,0,0,18,7.68a7.1,7.1,0,0,0,6.83-5.23l4.7,3a.14.14,0,0,1,.08.09L34.86,16l-5,2.88V13a.57.57,0,0,0-.57-.58.58.58,0,0,0-.58.58V29.8a.58.58,0,0,0,.58.58.57.57,0,0,0,.57-.58V20.26L35.6,17A1,1,0,0,0,36,15.7ZM18,4.43a3.78,3.78,0,0,1-2.68-1.09,3.73,3.73,0,0,1-1.08-2c2.68,1.44,5.19,1.5,7.49.17A3.82,3.82,0,0,1,18,4.43Z"/></g></g></svg>