<svg xmlns="http://www.w3.org/2000/svg" viewBox="0 0 39.23 39.23"><defs><style>.cls-1{fill:#fee648;}.cls-2{fill:#e7a532;}.cls-3{fill:#444;}.cls-4{fill:#292929;}.cls-5{fill:#dfd7d5;}.cls-6{fill:#5a5a5a;}</style></defs><g id="Livello_2" data-name="Livello 2"><g id="Livello_1-2" data-name="Livello 1"><path class="cls-1" d="M19.61,39.23A19.59,19.59,0,0,1,5.76,5.76,19.51,19.51,0,0,1,19.61,0h0a4.24,4.24,0,0,1,1.21,2.62A17.34,17.34,0,0,0,36.6,18.4a4.23,4.23,0,0,1,2.62,1.2h0A19.67,19.67,0,0,1,19.61,39.23Z"/><path class="cls-2" d="M39.23,19.61h0a4.23,4.23,0,0,0-2.62-1.2A17.34,17.34,0,0,1,20.83,2.63,4.24,4.24,0,0,0,19.62,0h0V39.23A19.67,19.67,0,0,0,39.23,19.61Z"/><path class="cls-3" d="M21.35,25.38,18,20.91l5-8.39.26-.42,1-1.66,1,1.66L26.33,14l6.8,11.38Z"/><path class="cls-4" d="M23.87,11l-.63,1.07-.26.42-3.37,5.67v4.87l1.74,2.32,11.78,0L26.33,14l-.16-.27A17.87,17.87,0,0,1,23.87,11Z"/><path class="cls-5" d="M38.08,19.61A18.52,18.52,0,0,1,19.61,1.15V0L39.23,19.61Z"/><path class="cls-6" d="M5.89,25.41,15,13.11l9.19,12.26Z"/><polygon class="cls-3" points="19.61 25.38 24.22 25.38 19.61 19.23 19.61 25.38"/></g></g></svg>