<svg xmlns="http://www.w3.org/2000/svg" viewBox="0 0 38.96 39.23"><defs><style>.cls-1{fill:#eabe32;}.cls-2{fill:#fee648;}.cls-3{fill:#e7a532;}.cls-4{fill:#146699;}</style></defs><g id="Livello_2" data-name="Livello 2"><g id="Livello_1-2" data-name="Livello 1"><path class="cls-1" d="M1.08,31.07c-.15.77-.35,1.87-.48,2.59a1.07,1.07,0,0,0,.56,1.15,5.78,5.78,0,0,0,2.72.63,1.06,1.06,0,0,0,1-.9l.41-2.39"/><path class="cls-1" d="M37.89,31.07l.47,2.59a1.07,1.07,0,0,1-.56,1.15,5.75,5.75,0,0,1-2.72.63,1.07,1.07,0,0,1-1-.9l-.4-2.39"/><path class="cls-1" d="M28.12,34.78v.44c0,1.89-3.87,3.43-8.64,3.43s-8.64-1.54-8.64-3.43v-.44"/><path class="cls-2" d="M28.05,7.74a19.25,19.25,0,0,1,5.33,3.51A74,74,0,0,1,38.16,29.9,1.83,1.83,0,0,1,37,31.82a10.24,10.24,0,0,1-2.4.49A1.81,1.81,0,0,1,32.64,31L29,17.92v14.9a2.56,2.56,0,0,1-1.42,2.3,18.32,18.32,0,0,1-8.13,1.52,18.23,18.23,0,0,1-8.12-1.52,2.56,2.56,0,0,1-1.42-2.3V17.92L6.32,31a1.8,1.8,0,0,1-1.91,1.32A10.14,10.14,0,0,1,2,31.82,1.82,1.82,0,0,1,.81,29.9,74,74,0,0,1,5.59,11.25a19.07,19.07,0,0,1,5.32-3.51"/><path class="cls-3" d="M15.34,7.1,14.6,8.58C11,9.69,5.73,11.88,3.1,27.13c-.45,2.12-1,4-.05,5a9.44,9.44,0,0,1-1-.29A1.82,1.82,0,0,1,.81,29.9,74,74,0,0,1,5.59,11.25,21.06,21.06,0,0,1,12.43,7.1Z"/><path class="cls-2" d="M28.72,5.32c0,3.13-4.13,7.68-9.24,7.68s-9.24-4.55-9.24-7.68S14.38.58,19.48.58,28.72,2.2,28.72,5.32Z"/><path class="cls-1" d="M37,31.82a10.24,10.24,0,0,1-2.4.49A1.81,1.81,0,0,1,32.64,31L29,17.92a7.14,7.14,0,0,1,1-3.87l4.16,16A3,3,0,0,0,37,31.82Z"/><path class="cls-3" d="M12.43,17.42V35.58a9.5,9.5,0,0,1-1.07-.46,2.56,2.56,0,0,1-1.42-2.3V17.92a7.44,7.44,0,0,0-.72-3.37S12.43,14.69,12.43,17.42Z"/><path class="cls-4" d="M34.67,14.69a1.66,1.66,0,0,0-1,0,2.34,2.34,0,0,0-.95,3.12,2.35,2.35,0,0,0,2.78,1.71,1.76,1.76,0,0,0,.56-.37"/><path class="cls-3" d="M19.48,3.08a7.49,7.49,0,0,0-5.9,2.55,7.49,7.49,0,0,0,5.9,2.56,7.51,7.51,0,0,0,5.91-2.56A7.52,7.52,0,0,0,19.48,3.08Z"/><path class="cls-3" d="M19.48,26c1.52,0,4.25-.22,4.25-.22s.38,3.72,3.33,4.47v2.28a18,18,0,0,1-15.16,0V30.21c3-.75,3.34-4.47,3.34-4.47S18,26,19.48,26Z"/><path d="M38.94,33.55c-.12-.65-.3-1.63-.44-2.37a2.38,2.38,0,0,0,.23-1.35A75.06,75.06,0,0,0,33.91,11a.57.57,0,0,0-.12-.18,18.73,18.73,0,0,0-5-3.38,5.43,5.43,0,0,0,.49-2.14,3.84,3.84,0,0,0-1.15-2.75.58.58,0,1,0-.84.8,2.73,2.73,0,0,1,.82,2c0,2.27-2.55,5.53-6.07,6.68v-.75a.58.58,0,1,0-1.16,0v1a8.36,8.36,0,0,1-1.43.13,8.54,8.54,0,0,1-1.43-.13v-1a.58.58,0,1,0-1.16,0V12c-3.51-1.15-6.07-4.41-6.07-6.68,0-1.25.8-2.27,2.38-3a15.15,15.15,0,0,1,6.28-1.15,15.45,15.45,0,0,1,6.1,1.06.57.57,0,0,0,.76-.3.59.59,0,0,0-.29-.77A16.71,16.71,0,0,0,19.48,0,16.16,16.16,0,0,0,12.7,1.25c-2,1-3,2.36-3,4.07a5.59,5.59,0,0,0,.48,2.14,19.06,19.06,0,0,0-5,3.38.57.57,0,0,0-.12.18A75.06,75.06,0,0,0,.23,29.83a2.47,2.47,0,0,0,.23,1.35C.33,31.92.15,32.9,0,33.55a1.65,1.65,0,0,0,.86,1.77,6.33,6.33,0,0,0,2.93.7h.07a1.66,1.66,0,0,0,1.62-1.38l.35-2.11a2.35,2.35,0,0,0,1-1.38l2.48-8.94V32.82a3.14,3.14,0,0,0,.9,2.22v.18c0,2.29,4,4,9.22,4s9.22-1.72,9.22-4V35a3.14,3.14,0,0,0,.91-2.21V22.21l2.47,8.94a2.4,2.4,0,0,0,1,1.38l.36,2.11A1.64,1.64,0,0,0,35.08,36h.06a6.3,6.3,0,0,0,2.93-.7A1.66,1.66,0,0,0,38.94,33.55ZM34.22,15.21c.36,1.07.76,2.34,1.16,3.76l-.1,0a1.23,1.23,0,0,1-1.08-.16,2.39,2.39,0,0,1-1-1.21,2.32,2.32,0,0,1-.08-1.53,1.19,1.19,0,0,1,.7-.83A.84.84,0,0,1,34.22,15.21ZM4.36,34.44a.49.49,0,0,1-.48.42,5.12,5.12,0,0,1-2.45-.57.5.5,0,0,1-.26-.53c.08-.43.19-1,.29-1.55a2.17,2.17,0,0,0,.35.15,10.06,10.06,0,0,0,2.55.53h.26Zm21,2.66a16.61,16.61,0,0,1-5.9,1,16.55,16.55,0,0,1-5.89-1,4.65,4.65,0,0,1-1.86-1.17,20.09,20.09,0,0,0,7.75,1.29,20.09,20.09,0,0,0,7.75-1.29A4.68,4.68,0,0,1,25.38,37.1Zm4.21-19.33a.59.59,0,0,0-1.15.15v14.9a2,2,0,0,1-1.09,1.78,17.79,17.79,0,0,1-7.87,1.45,17.7,17.7,0,0,1-7.86-1.45,2,2,0,0,1-1.1-1.78V17.92a.57.57,0,0,0-.5-.57.58.58,0,0,0-.64.42L5.76,30.84a1.22,1.22,0,0,1-1.3.89,9.1,9.1,0,0,1-2.26-.46A1.23,1.23,0,0,1,1.39,30,75.06,75.06,0,0,1,5.89,12a5.3,5.3,0,0,1,2.79,3.22.57.57,0,0,0,.56.44h.14A.6.6,0,0,0,9.81,15a6.34,6.34,0,0,0-3.2-3.88,19.46,19.46,0,0,1,4.06-2.61,10.46,10.46,0,0,0,1.88,2.27,10.8,10.8,0,0,0,4.34,2.45v6.92a.58.58,0,1,0,1.16,0V13.47a9.84,9.84,0,0,0,1.43.11,9.73,9.73,0,0,0,1.43-.11v9.29a.58.58,0,0,0,1.16,0V13.21a10.8,10.8,0,0,0,4.34-2.45,10.18,10.18,0,0,0,1.88-2.27,19,19,0,0,1,4.06,2.61A6.36,6.36,0,0,0,29.16,15a.59.59,0,0,0,.42.71h.14a.59.59,0,0,0,.57-.44A5.26,5.26,0,0,1,33.07,12c.18.44.44,1.13.77,2a2.32,2.32,0,0,0-1.79,1.69,3.62,3.62,0,0,0,.11,2.29,3.58,3.58,0,0,0,1.44,1.79,2.52,2.52,0,0,0,1.32.39,2,2,0,0,0,.76-.14A70.14,70.14,0,0,1,37.58,30a1.24,1.24,0,0,1-.82,1.3,9.1,9.1,0,0,1-2.26.46,1.23,1.23,0,0,1-1.3-.89Zm7.94,16.52a5.11,5.11,0,0,1-2.39.57h0a.51.51,0,0,1-.49-.42l-.26-1.54h.27a9.88,9.88,0,0,0,2.54-.53,1.94,1.94,0,0,0,.36-.15c.1.55.2,1.12.28,1.55A.48.48,0,0,1,37.53,34.29Z"/><path d="M25.74,5.18a.57.57,0,0,0-.81.1,7,7,0,0,1-5.45,2.33A7,7,0,0,1,14,5.27a.59.59,0,0,0-.82-.09.57.57,0,0,0-.1.81,8,8,0,0,0,6.36,2.78A8,8,0,0,0,25.84,6,.57.57,0,0,0,25.74,5.18Z"/><path d="M27.21,29.65c-2.52-.65-2.9-3.94-2.91-4a.57.57,0,0,0-.62-.52s-2.72.22-4.2.22-4.17-.22-4.19-.22a.58.58,0,0,0-.63.52s-.38,3.32-2.9,4a.59.59,0,0,0-.44.56v2.28a.57.57,0,0,0,.31.51,12.59,12.59,0,0,0,1.76.72.58.58,0,0,0,.74-.36.59.59,0,0,0-.36-.74,13.26,13.26,0,0,1-1.29-.5V30.64a4.9,4.9,0,0,0,2.73-2.71,7.56,7.56,0,0,0,.51-1.57c.88.06,2.63.18,3.76.18s2.89-.12,3.76-.18a7.68,7.68,0,0,0,.52,1.57,4.88,4.88,0,0,0,2.72,2.71v1.48a17.63,17.63,0,0,1-7,1.46,17.81,17.81,0,0,1-3.54-.37.6.6,0,0,0-.69.45.58.58,0,0,0,.46.69,18.64,18.64,0,0,0,3.77.39A18.06,18.06,0,0,0,27.33,33a.58.58,0,0,0,.32-.51V30.21A.59.59,0,0,0,27.21,29.65Z"/></g></g></svg>