<svg xmlns="http://www.w3.org/2000/svg" viewBox="0 0 39.23 39.23"><defs><style>.cls-1{fill:#ffc595;}.cls-2{fill:#4d4d4d;}.cls-3{fill:#b3b3b3;}.cls-4{fill:#e7a532;}.cls-5{fill:#fee648;}.cls-6{fill:#ffc571;}.cls-7{fill:#fec248;}</style></defs><g id="Livello_2" data-name="Livello 2"><g id="Livello_1-2" data-name="Livello 1"><path class="cls-1" d="M35.31,19.61V14.38a3.93,3.93,0,0,0-3.93-3.92H21.81a.89.89,0,0,0-.89.9,5.78,5.78,0,0,0,.27,1.72H2.67A2.65,2.65,0,0,0,0,15.74a2.63,2.63,0,0,0,2.62,2.57H5.23V34H31.38a3.93,3.93,0,0,0,3.93-3.93h2.77a1.15,1.15,0,0,0,1.15-1.14V20.76a1.16,1.16,0,0,0-1.15-1.15Z"/><path class="cls-2" d="M25.29,0H8.71A3.48,3.48,0,0,0,5.23,3.48V35.75a3.48,3.48,0,0,0,3.48,3.48H25.29a3.48,3.48,0,0,0,3.48-3.48V3.48A3.48,3.48,0,0,0,25.29,0Z"/><path class="cls-3" d="M28.77,35.75V3.48A3.48,3.48,0,0,0,25.29,0H17V39.23h8.29A3.48,3.48,0,0,0,28.77,35.75Z"/><path class="cls-4" d="M25.16,2.3H23.84V3.61a3.6,3.6,0,0,1-3.61,3.61H13.77a3.61,3.61,0,0,1-3.62-3.61V2.3H8.84A1.31,1.31,0,0,0,7.53,3.61v32a1.31,1.31,0,0,0,1.31,1.31H25.16a1.31,1.31,0,0,0,1.31-1.31v-32A1.31,1.31,0,0,0,25.16,2.3Z"/><path class="cls-5" d="M26.47,35.62v-32A1.31,1.31,0,0,0,25.16,2.3H23.84V3.61a3.6,3.6,0,0,1-3.61,3.61H17V36.93h8.16A1.31,1.31,0,0,0,26.47,35.62Z"/><circle class="cls-6" cx="5.23" cy="31.38" r="2.62"/><path class="cls-1" d="M8.5,23.54a2.62,2.62,0,0,0,0-5.23H3.27a2.62,2.62,0,1,0,0,5.23H4.58a2.62,2.62,0,1,0,0,5.23H8.5a2.62,2.62,0,0,0,0-5.23Z"/><path class="cls-7" d="M19.46,34.3H14.54a1.15,1.15,0,1,1,0-2.29h4.92a1.15,1.15,0,1,1,0,2.29Z"/><path class="cls-7" d="M20.61,33.15A1.14,1.14,0,0,0,19.46,32H17V34.3h2.46A1.14,1.14,0,0,0,20.61,33.15Z"/><path class="cls-1" d="M35.31,17.93V14.38a3.93,3.93,0,0,0-3.93-3.92H21.81a.89.89,0,0,0-.89.89A5.66,5.66,0,0,0,26.57,17h2.2V34h2.61a3.93,3.93,0,0,0,3.93-3.93h2.77a1.15,1.15,0,0,0,1.15-1.14V19.08a1.15,1.15,0,0,0-1.15-1.15Z"/><path class="cls-6" d="M8.5,23.54H4.58a2.62,2.62,0,1,0,0,5.23H8.5a2.62,2.62,0,0,0,0-5.23Z"/><path class="cls-6" d="M28.77,23.54V34h2.61a3.93,3.93,0,0,0,3.93-3.93h2.77a1.15,1.15,0,0,0,1.15-1.14V23.54Z"/></g></g></svg>