<svg xmlns="http://www.w3.org/2000/svg" viewBox="0 0 55.77 55.77"><defs><style>.cls-1{fill:#e7a532;}.cls-2{fill:#cd4f38;}.cls-3{fill:#dc6c33;}.cls-4{fill:#ed634c;}.cls-5{fill:#ec9130;}.cls-6{fill:#fee648;}</style></defs><g id="Livello_2" data-name="Livello 2"><g id="Livello_2-2" data-name="Livello 2"><path class="cls-1" d="M53.85,30.77V25a1.92,1.92,0,0,0,1.92-1.92V17.31a1.92,1.92,0,0,0-1.92-1.92V9.62a1.94,1.94,0,0,0,1.92-1.93V1.92A1.92,1.92,0,0,0,53.85,0H45.2a1.92,1.92,0,0,0-1.93,1.92H37.5A1.92,1.92,0,0,0,35.58,0H1.92A1.92,1.92,0,0,0,0,1.92V7.69A1.94,1.94,0,0,0,1.92,9.62v5.77A1.92,1.92,0,0,0,0,17.31v5.77A1.92,1.92,0,0,0,1.92,25v5.77A1.92,1.92,0,0,0,0,32.69v5.77a1.94,1.94,0,0,0,1.92,1.93v5.77A1.92,1.92,0,0,0,0,48.08v5.77a1.92,1.92,0,0,0,1.92,1.92h8.66a1.92,1.92,0,0,0,1.92-1.92h5.77a1.92,1.92,0,0,0,1.92,1.92H53.85a1.92,1.92,0,0,0,1.92-1.92V48.08a1.92,1.92,0,0,0-1.92-1.92V40.39a1.94,1.94,0,0,0,1.92-1.93V32.69A1.92,1.92,0,0,0,53.85,30.77Z"/><path id="SVGCleanerId_0" data-name="SVGCleanerId 0" class="cls-2" d="M1.92,0H35.58A1.92,1.92,0,0,1,37.5,1.92V7.69a1.93,1.93,0,0,1-1.92,1.93H1.92A1.93,1.93,0,0,1,0,7.69V1.92A1.92,1.92,0,0,1,1.92,0Z"/><path class="cls-3" d="M45.2,0h8.65a1.92,1.92,0,0,1,1.92,1.92V7.69a1.93,1.93,0,0,1-1.92,1.93H45.2a1.93,1.93,0,0,1-1.93-1.93V1.92A1.92,1.92,0,0,1,45.2,0Z"/><path id="SVGCleanerId_1" data-name="SVGCleanerId 1" class="cls-2" d="M20.19,46.16H53.85a1.92,1.92,0,0,1,1.92,1.92v5.77a1.92,1.92,0,0,1-1.92,1.92H20.19a1.92,1.92,0,0,1-1.92-1.92V48.08A1.92,1.92,0,0,1,20.19,46.16Z"/><path id="SVGCleanerId_2" data-name="SVGCleanerId 2" class="cls-3" d="M1.92,46.16h8.66a1.92,1.92,0,0,1,1.92,1.92v5.77a1.92,1.92,0,0,1-1.92,1.92H1.92A1.92,1.92,0,0,1,0,53.85V48.08A1.92,1.92,0,0,1,1.92,46.16Z"/><path id="SVGCleanerId_3" data-name="SVGCleanerId 3" class="cls-3" d="M1.92,30.77H35.58a1.92,1.92,0,0,1,1.92,1.92v5.77a1.92,1.92,0,0,1-1.92,1.93H1.92A1.92,1.92,0,0,1,0,38.46V32.69A1.92,1.92,0,0,1,1.92,30.77Z"/><path id="SVGCleanerId_4" data-name="SVGCleanerId 4" class="cls-2" d="M45.2,30.77h8.65a1.92,1.92,0,0,1,1.92,1.92v5.77a1.92,1.92,0,0,1-1.92,1.93H45.2a1.92,1.92,0,0,1-1.93-1.93V32.69A1.92,1.92,0,0,1,45.2,30.77Z"/><path class="cls-4" d="M20.19,15.39H53.85a1.92,1.92,0,0,1,1.92,1.92v5.77A1.92,1.92,0,0,1,53.85,25H20.19a1.92,1.92,0,0,1-1.92-1.92V17.31A1.92,1.92,0,0,1,20.19,15.39Z"/><path id="SVGCleanerId_5" data-name="SVGCleanerId 5" class="cls-5" d="M1.92,15.39h8.66a1.92,1.92,0,0,1,1.92,1.92v5.77A1.92,1.92,0,0,1,10.58,25H1.92A1.92,1.92,0,0,1,0,23.08V17.31A1.92,1.92,0,0,1,1.92,15.39Z"/><path id="SVGCleanerId_0-2" data-name="SVGCleanerId 0" class="cls-6" d="M1.92,0H35.58A1.92,1.92,0,0,1,37.5,1.92V7.69a1.93,1.93,0,0,1-1.92,1.93H1.92A1.93,1.93,0,0,1,0,7.69V1.92A1.92,1.92,0,0,1,1.92,0Z"/><path class="cls-6" d="M45.2,0h8.65a1.92,1.92,0,0,1,1.92,1.92V7.69a1.93,1.93,0,0,1-1.92,1.93H45.2a1.93,1.93,0,0,1-1.93-1.93V1.92A1.92,1.92,0,0,1,45.2,0Z"/><path id="SVGCleanerId_1-2" data-name="SVGCleanerId 1" class="cls-6" d="M20.19,46.16H53.85a1.92,1.92,0,0,1,1.92,1.92v5.77a1.92,1.92,0,0,1-1.92,1.92H20.19a1.92,1.92,0,0,1-1.92-1.92V48.08A1.92,1.92,0,0,1,20.19,46.16Z"/><path id="SVGCleanerId_2-2" data-name="SVGCleanerId 2" class="cls-6" d="M1.92,46.16h8.66a1.92,1.92,0,0,1,1.92,1.92v5.77a1.92,1.92,0,0,1-1.92,1.92H1.92A1.92,1.92,0,0,1,0,53.85V48.08A1.92,1.92,0,0,1,1.92,46.16Z"/><path id="SVGCleanerId_3-2" data-name="SVGCleanerId 3" class="cls-6" d="M1.92,30.77H35.58a1.92,1.92,0,0,1,1.92,1.92v5.77a1.92,1.92,0,0,1-1.92,1.93H1.92A1.92,1.92,0,0,1,0,38.46V32.69A1.92,1.92,0,0,1,1.92,30.77Z"/><path id="SVGCleanerId_4-2" data-name="SVGCleanerId 4" class="cls-6" d="M45.2,30.77h8.65a1.92,1.92,0,0,1,1.92,1.92v5.77a1.92,1.92,0,0,1-1.92,1.93H45.2a1.92,1.92,0,0,1-1.93-1.93V32.69A1.92,1.92,0,0,1,45.2,30.77Z"/><path class="cls-6" d="M20.19,15.39H53.85a1.92,1.92,0,0,1,1.92,1.92v5.77A1.92,1.92,0,0,1,53.85,25H20.19a1.92,1.92,0,0,1-1.92-1.92V17.31A1.92,1.92,0,0,1,20.19,15.39Z"/><path id="SVGCleanerId_5-2" data-name="SVGCleanerId 5" class="cls-6" d="M1.92,15.39h8.66a1.92,1.92,0,0,1,1.92,1.92v5.77A1.92,1.92,0,0,1,10.58,25H1.92A1.92,1.92,0,0,1,0,23.08V17.31A1.92,1.92,0,0,1,1.92,15.39Z"/></g></g></svg>