<svg xmlns="http://www.w3.org/2000/svg" viewBox="0 0 39.23 29.89"><defs><style>.cls-1{fill:#fcf6d6;}.cls-2{fill:#e0d8b6;}.cls-3{fill:#fee648;}.cls-4{fill:#e7a532;}</style></defs><g id="Livello_2" data-name="Livello 2"><g id="Livello_1-2" data-name="Livello 1"><path class="cls-1" d="M38.46,4.48a33.9,33.9,0,0,1-6.13,5.78,33.82,33.82,0,0,1-7.57,4.18l-4,1.44,6.9-9,10-3.65A.78.78,0,0,1,38.46,4.48Z"/><path class="cls-2" d="M32.33,10.26a33.82,33.82,0,0,1-7.57,4.18l-4,1.44,6.9-9S27.09,10.92,32.33,10.26Z"/><path class="cls-3" d="M27.63,6.9A79.76,79.76,0,0,1,17.77,19c-1.34,1.36-2.74,2.66-4.18,3.92a79.32,79.32,0,0,1-7.85,6l-.51.35a15,15,0,0,1-1.72-2l2.13-1.69A3.47,3.47,0,0,0,1.9,24.43,15.85,15.85,0,0,1,5.23,6.9,35.18,35.18,0,0,1,9.45,3.21h0A11.71,11.71,0,0,1,16.73.59C20.53.77,24.73,4,27.63,6.9Z"/><path class="cls-4" d="M13.59,22.93a79.32,79.32,0,0,1-7.85,6l-.51.35a15,15,0,0,1-1.72-2l2.13-1.69A3.47,3.47,0,0,0,1.9,24.43,15.85,15.85,0,0,1,5.23,6.9,35.18,35.18,0,0,1,9.45,3.21C9.3,3.42,1.26,15,13.59,22.93Z"/><path d="M39,3.2a1.34,1.34,0,0,0-1.57-.5L27.78,6.22c-2.4-2.35-6.79-6-11-6.21a11.16,11.16,0,0,0-6.47,1.93A32.14,32.14,0,0,0,4.81,6.49,16.46,16.46,0,0,0,1.36,24.66a.59.59,0,0,0,.71.32,2.89,2.89,0,0,1,2.7.55L3.14,26.82a.58.58,0,0,0-.11.79,17.13,17.13,0,0,0,1.78,2.11.63.63,0,0,0,.42.17.55.55,0,0,0,.32-.1l.51-.34a80.91,80.91,0,0,0,12.13-10q1.45-1.49,2.85-3L25,15h0A34.66,34.66,0,0,0,38.91,4.85,1.34,1.34,0,0,0,39,3.2Zm-27,20.4c-.53-.54-1-1.08-1.51-1.61a.58.58,0,0,0-.82-.06.59.59,0,0,0-.06.83c.46.52,1,1,1.48,1.58-1.8,1.45-3.66,2.84-5.6,4.14l-.1.07a14,14,0,0,1-1-1.17L6,26a.62.62,0,0,0,.22-.39.6.6,0,0,0-.12-.43,4.06,4.06,0,0,0-3.85-1.47A15.22,15.22,0,0,1,4,9.21,10.82,10.82,0,0,0,4,10.78c.1,4.21,2.44,8.06,4.39,10.55a.61.61,0,0,0,.46.22.6.6,0,0,0,.36-.12.58.58,0,0,0,.1-.82c-1.82-2.33-4-5.92-4.14-9.77a7.61,7.61,0,0,1,.65-3.63s0,0,0,0l0,0a6.37,6.37,0,0,1,1.93-.55,11.44,11.44,0,0,1,5.35.6.63.63,0,0,0,.19,0,.58.58,0,0,0,.55-.4.59.59,0,0,0-.37-.74,12.66,12.66,0,0,0-5.86-.65,25,25,0,0,1,3.27-2.5,10,10,0,0,1,5.8-1.75c3.91.18,8.21,3.88,10.18,5.8-1.24,1.85-2.56,3.65-3.95,5.38A28.53,28.53,0,0,0,15.76,7a.59.59,0,0,0-.79.26.58.58,0,0,0,.27.78,27.4,27.4,0,0,1,7,5.2A79.55,79.55,0,0,1,11.92,23.6ZM38,4.11a33.54,33.54,0,0,1-13.45,9.78l-2,.7A78.8,78.8,0,0,0,28,7.38L37.8,3.8a.17.17,0,0,1,.22.07A.18.18,0,0,1,38,4.11Z"/></g></g></svg>