<svg id="Livello_1" data-name="Livello 1" xmlns="http://www.w3.org/2000/svg" viewBox="0 0 83.42 83.42"><defs><style>.cls-1{fill:#9b9b9b;}.cls-2{fill:#727272;}.cls-3{fill:#7986e8;}.cls-4{fill:#5a65e3;}.cls-5{fill:#fee683;}.cls-6{fill:#fee648;}</style></defs><path id="Tracciato_20" data-name="Tracciato 20" class="cls-1" d="M82.29,54.32,43,29.88a2.43,2.43,0,0,0-2.64,0L1.12,54.32a2.43,2.43,0,0,0-.73,3.36,2.45,2.45,0,0,0,.73.74L40.39,83A2.43,2.43,0,0,0,43,83l39.26-24.6a2.42,2.42,0,0,0,0-4.1Z"/><path id="Tracciato_21" data-name="Tracciato 21" class="cls-2" d="M83.42,56.37a2.47,2.47,0,0,1-1.13,2.05L43,83a2.82,2.82,0,0,1-1.32.4V29.49a2.3,2.3,0,0,1,1.32.39L82.29,54.32A2.47,2.47,0,0,1,83.42,56.37Z"/><path id="Tracciato_22" data-name="Tracciato 22" class="cls-3" d="M82.29,39.65,43,15.22a2.43,2.43,0,0,0-2.64,0L1.12,39.65A2.44,2.44,0,0,0,.39,43a2.31,2.31,0,0,0,.73.73L40.39,68.19a2.43,2.43,0,0,0,2.64,0L82.29,43.75A2.42,2.42,0,0,0,83,40.39a2.38,2.38,0,0,0-.74-.74Z"/><path id="Tracciato_23" data-name="Tracciato 23" class="cls-4" d="M83.42,41.71a2.47,2.47,0,0,1-1.13,2L43,68.2a2.81,2.81,0,0,1-1.32.39V14.83a2.22,2.22,0,0,1,1.32.39L82.29,39.65A2.5,2.5,0,0,1,83.42,41.71Z"/><path id="Tracciato_24" data-name="Tracciato 24" class="cls-5" d="M82.29,25,43,.39a2.43,2.43,0,0,0-2.64,0L1.12,25a2.44,2.44,0,0,0-.73,3.37,2.54,2.54,0,0,0,.73.73L40.39,53.53a2.39,2.39,0,0,0,2.64,0L82.29,29.1a2.42,2.42,0,0,0,0-4.1Z"/><path id="Tracciato_25" data-name="Tracciato 25" class="cls-6" d="M83.42,27.05a2.48,2.48,0,0,1-1.13,2.05L43,53.53a2.71,2.71,0,0,1-1.32.4V0A2.3,2.3,0,0,1,43,.39L82.29,25A2.47,2.47,0,0,1,83.42,27.05Z"/></svg>