<svg id="Capa_1" data-name="Capa 1" xmlns="http://www.w3.org/2000/svg" viewBox="0 0 512 512"><defs><style>.cls-1{fill:#fff;}.cls-2{fill:#ccb841;}.cls-3{fill:#fee648;}</style></defs><path class="cls-1" d="M458.67,85.33H256a10.71,10.71,0,0,0-3.37.54l-2.56.85a10.67,10.67,0,0,0-6.75,13.49l0,.1L350.57,413.63,280,494.31A10.67,10.67,0,0,0,288,512H458.67A53.33,53.33,0,0,0,512,458.67v-320A53.34,53.34,0,0,0,458.67,85.33Z"/><path class="cls-2" d="M372.37,411.58a10.66,10.66,0,0,0-9.7-6.25H256A10.67,10.67,0,0,0,245.33,416a10.56,10.56,0,0,0,.69,3.76l32,85.33a10.67,10.67,0,0,0,8.08,6.74,12.09,12.09,0,0,0,1.9.17,10.64,10.64,0,0,0,8-3.65L370.69,423A10.67,10.67,0,0,0,372.37,411.58Z"/><path d="M458.67,234.67H309.33a10.67,10.67,0,0,1,0-21.34H458.67a10.67,10.67,0,0,1,0,21.34Z"/><path d="M373.33,234.67A10.67,10.67,0,0,1,362.67,224V202.67a10.67,10.67,0,1,1,21.33,0V224A10.67,10.67,0,0,1,373.33,234.67Z"/><path d="M341.33,362.67a10.67,10.67,0,0,1-6.18-19.35C381.87,310.12,416,242.45,416,224a10.67,10.67,0,1,1,21.33,0c0,28.12-41.11,102.1-89.81,136.68A10.66,10.66,0,0,1,341.33,362.67Z"/><path d="M426.67,384a10.64,10.64,0,0,1-7.21-2.8c-7.73-7.08-75.91-70.05-88-99.86a10.67,10.67,0,1,1,19.77-8c8.73,21.51,62.64,73.81,82.67,92.14A10.67,10.67,0,0,1,426.67,384Z"/><path class="cls-3" d="M372.76,412.54,234.09,7.21A10.67,10.67,0,0,0,224,0H53.33A53.33,53.33,0,0,0,0,53.33v320a53.34,53.34,0,0,0,53.33,53.34H362.67a10.69,10.69,0,0,0,10.09-14.13Z"/><path d="M202.67,298.67a10.67,10.67,0,0,1-10-7.09L149.33,170.37,106.05,291.58A10.67,10.67,0,0,1,86,284.42l53.34-149.34a11.09,11.09,0,0,1,20.07,0l53.33,149.34a10.66,10.66,0,0,1-6.39,13.63A11.11,11.11,0,0,1,202.67,298.67Z"/><path d="M170.67,234.67H128a10.67,10.67,0,0,1,0-21.34h42.67a10.67,10.67,0,0,1,0,21.34Z"/></svg>